M48
; DRILL file {KiCad (5.1.5)-3} date 7/03/2021 17:40:11
; FORMAT={-:-/ absolute / inch / decimal}
; #@! TF.CreationDate,2021-03-07T17:40:11+01:00
; #@! TF.GenerationSoftware,Kicad,Pcbnew,(5.1.5)-3
FMAT,2
INCH
T1C0.0157
T2C0.0197
T3C0.0295
T4C0.0433
T5C0.0591
%
G90
G05
T1
X3.189Y-2.7165
X4.0157Y-1.7323
X5.0Y-2.2441
X5.8268Y-2.126
T2
X6.378Y-2.0472
X6.378Y-2.0866
X6.378Y-2.126
X6.378Y-2.1654
X6.378Y-2.2047
X6.378Y-2.2441
X6.1024Y-1.7717
X6.1417Y-1.7717
X6.1811Y-1.7717
X6.2205Y-1.7717
X6.2598Y-1.7717
X6.2992Y-1.7717
X6.3386Y-1.7717
X6.378Y-1.7717
T3
X1.9291Y-1.9972
X1.9291Y-2.0472
X1.9291Y-2.0972
X2.7559Y-2.0079
X2.7559Y-2.0579
X2.7559Y-2.1079
X4.1732Y-2.4803
X4.1732Y-2.5303
X4.1732Y-2.5803
T4
X4.1732Y-2.0472
X4.1732Y-2.1472
X4.1732Y-2.2472
X2.1654Y-1.5748
X2.1654Y-1.6748
X2.1654Y-1.7748
X4.6457Y-2.0654
X4.6457Y-2.1654
X4.6457Y-2.2654
X1.9291Y-2.4409
X1.9291Y-2.5409
X1.9291Y-2.6409
X3.6614Y-1.5748
X3.6614Y-1.6748
X3.6614Y-1.7748
X2.5197Y-1.5748
X2.5197Y-1.6748
X2.5197Y-1.7748
X2.7559Y-2.4197
X2.7559Y-2.5197
X2.7559Y-2.6197
T5
X5.1575Y-1.2992
X5.3575Y-1.2992
X2.0079Y-2.9528
X2.2079Y-2.9528
X2.4409Y-2.9528
X2.6409Y-2.9528
X5.4299Y-2.3228
X5.6299Y-2.3228
X3.937Y-1.2598
X4.137Y-1.2598
X4.685Y-1.2874
X4.885Y-1.2874
X2.2441Y-1.2717
X2.4441Y-1.2717
X3.1858Y-2.9528
X3.3858Y-2.9528
X3.7402Y-2.9528
X3.9402Y-2.9528
T0
M30
