G04 #@! TF.GenerationSoftware,KiCad,Pcbnew,(5.1.5)-3*
G04 #@! TF.CreationDate,2021-03-07T17:40:16+01:00*
G04 #@! TF.ProjectId,Motorproject,4d6f746f-7270-4726-9f6a-6563742e6b69,rev?*
G04 #@! TF.SameCoordinates,Original*
G04 #@! TF.FileFunction,Copper,L1,Top*
G04 #@! TF.FilePolarity,Positive*
%FSLAX46Y46*%
G04 Gerber Fmt 4.6, Leading zero omitted, Abs format (unit mm)*
G04 Created by KiCad (PCBNEW (5.1.5)-3) date 2021-03-07 17:40:16*
%MOMM*%
%LPD*%
G04 APERTURE LIST*
%ADD10C,3.500120*%
%ADD11R,3.500120X3.500120*%
%ADD12R,0.900000X1.200000*%
%ADD13R,1.200000X0.900000*%
%ADD14R,1.300000X1.550000*%
%ADD15R,1.550000X1.300000*%
%ADD16C,0.100000*%
%ADD17O,0.850000X0.850000*%
%ADD18R,0.850000X0.850000*%
%ADD19O,2.000000X1.905000*%
%ADD20R,2.000000X1.905000*%
%ADD21R,1.500000X1.050000*%
%ADD22O,1.500000X1.050000*%
%ADD23C,0.800000*%
%ADD24C,1.000000*%
%ADD25C,0.500000*%
G04 APERTURE END LIST*
D10*
X124080000Y-32700000D03*
D11*
X119000000Y-32700000D03*
D10*
X100080000Y-75000000D03*
D11*
X95000000Y-75000000D03*
D10*
X80920000Y-75000000D03*
D11*
X86000000Y-75000000D03*
D10*
X105080000Y-32000000D03*
D11*
X100000000Y-32000000D03*
D10*
X137920000Y-59000000D03*
D11*
X143000000Y-59000000D03*
D10*
X56080000Y-75000000D03*
D11*
X51000000Y-75000000D03*
D10*
X67080000Y-75000000D03*
D11*
X62000000Y-75000000D03*
D10*
X62080000Y-32300000D03*
D11*
X57000000Y-32300000D03*
D10*
X136080000Y-33000000D03*
D11*
X131000000Y-33000000D03*
D12*
X107650000Y-44000000D03*
X104350000Y-44000000D03*
D13*
X75000000Y-34350000D03*
X75000000Y-37650000D03*
X44000000Y-34350000D03*
X44000000Y-37650000D03*
D14*
X125800000Y-47800000D03*
X130400000Y-47800000D03*
X130400000Y-56200000D03*
X125800000Y-56200000D03*
D15*
X139800000Y-53200000D03*
X139800000Y-48600000D03*
X148200000Y-48600000D03*
X148200000Y-53200000D03*
G04 #@! TA.AperFunction,SMDPad,CuDef*
D16*
G36*
X81949504Y-44426204D02*
G01*
X81973773Y-44429804D01*
X81997571Y-44435765D01*
X82020671Y-44444030D01*
X82042849Y-44454520D01*
X82063893Y-44467133D01*
X82083598Y-44481747D01*
X82101777Y-44498223D01*
X82118253Y-44516402D01*
X82132867Y-44536107D01*
X82145480Y-44557151D01*
X82155970Y-44579329D01*
X82164235Y-44602429D01*
X82170196Y-44626227D01*
X82173796Y-44650496D01*
X82175000Y-44675000D01*
X82175000Y-46250000D01*
X82173796Y-46274504D01*
X82170196Y-46298773D01*
X82164235Y-46322571D01*
X82155970Y-46345671D01*
X82145480Y-46367849D01*
X82132867Y-46388893D01*
X82118253Y-46408598D01*
X82101777Y-46426777D01*
X82083598Y-46443253D01*
X82063893Y-46457867D01*
X82042849Y-46470480D01*
X82020671Y-46480970D01*
X81997571Y-46489235D01*
X81973773Y-46495196D01*
X81949504Y-46498796D01*
X81925000Y-46500000D01*
X80075000Y-46500000D01*
X80050496Y-46498796D01*
X80026227Y-46495196D01*
X80002429Y-46489235D01*
X79979329Y-46480970D01*
X79957151Y-46470480D01*
X79936107Y-46457867D01*
X79916402Y-46443253D01*
X79898223Y-46426777D01*
X79881747Y-46408598D01*
X79867133Y-46388893D01*
X79854520Y-46367849D01*
X79844030Y-46345671D01*
X79835765Y-46322571D01*
X79829804Y-46298773D01*
X79826204Y-46274504D01*
X79825000Y-46250000D01*
X79825000Y-44675000D01*
X79826204Y-44650496D01*
X79829804Y-44626227D01*
X79835765Y-44602429D01*
X79844030Y-44579329D01*
X79854520Y-44557151D01*
X79867133Y-44536107D01*
X79881747Y-44516402D01*
X79898223Y-44498223D01*
X79916402Y-44481747D01*
X79936107Y-44467133D01*
X79957151Y-44454520D01*
X79979329Y-44444030D01*
X80002429Y-44435765D01*
X80026227Y-44429804D01*
X80050496Y-44426204D01*
X80075000Y-44425000D01*
X81925000Y-44425000D01*
X81949504Y-44426204D01*
G37*
G04 #@! TD.AperFunction*
G04 #@! TA.AperFunction,SMDPad,CuDef*
G36*
X81949504Y-39501204D02*
G01*
X81973773Y-39504804D01*
X81997571Y-39510765D01*
X82020671Y-39519030D01*
X82042849Y-39529520D01*
X82063893Y-39542133D01*
X82083598Y-39556747D01*
X82101777Y-39573223D01*
X82118253Y-39591402D01*
X82132867Y-39611107D01*
X82145480Y-39632151D01*
X82155970Y-39654329D01*
X82164235Y-39677429D01*
X82170196Y-39701227D01*
X82173796Y-39725496D01*
X82175000Y-39750000D01*
X82175000Y-41325000D01*
X82173796Y-41349504D01*
X82170196Y-41373773D01*
X82164235Y-41397571D01*
X82155970Y-41420671D01*
X82145480Y-41442849D01*
X82132867Y-41463893D01*
X82118253Y-41483598D01*
X82101777Y-41501777D01*
X82083598Y-41518253D01*
X82063893Y-41532867D01*
X82042849Y-41545480D01*
X82020671Y-41555970D01*
X81997571Y-41564235D01*
X81973773Y-41570196D01*
X81949504Y-41573796D01*
X81925000Y-41575000D01*
X80075000Y-41575000D01*
X80050496Y-41573796D01*
X80026227Y-41570196D01*
X80002429Y-41564235D01*
X79979329Y-41555970D01*
X79957151Y-41545480D01*
X79936107Y-41532867D01*
X79916402Y-41518253D01*
X79898223Y-41501777D01*
X79881747Y-41483598D01*
X79867133Y-41463893D01*
X79854520Y-41442849D01*
X79844030Y-41420671D01*
X79835765Y-41397571D01*
X79829804Y-41373773D01*
X79826204Y-41349504D01*
X79825000Y-41325000D01*
X79825000Y-39750000D01*
X79826204Y-39725496D01*
X79829804Y-39701227D01*
X79835765Y-39677429D01*
X79844030Y-39654329D01*
X79854520Y-39632151D01*
X79867133Y-39611107D01*
X79881747Y-39591402D01*
X79898223Y-39573223D01*
X79916402Y-39556747D01*
X79936107Y-39542133D01*
X79957151Y-39529520D01*
X79979329Y-39519030D01*
X80002429Y-39510765D01*
X80026227Y-39504804D01*
X80050496Y-39501204D01*
X80075000Y-39500000D01*
X81925000Y-39500000D01*
X81949504Y-39501204D01*
G37*
G04 #@! TD.AperFunction*
G04 #@! TA.AperFunction,SMDPad,CuDef*
G36*
X137649504Y-40776204D02*
G01*
X137673773Y-40779804D01*
X137697571Y-40785765D01*
X137720671Y-40794030D01*
X137742849Y-40804520D01*
X137763893Y-40817133D01*
X137783598Y-40831747D01*
X137801777Y-40848223D01*
X137818253Y-40866402D01*
X137832867Y-40886107D01*
X137845480Y-40907151D01*
X137855970Y-40929329D01*
X137864235Y-40952429D01*
X137870196Y-40976227D01*
X137873796Y-41000496D01*
X137875000Y-41025000D01*
X137875000Y-41775000D01*
X137873796Y-41799504D01*
X137870196Y-41823773D01*
X137864235Y-41847571D01*
X137855970Y-41870671D01*
X137845480Y-41892849D01*
X137832867Y-41913893D01*
X137818253Y-41933598D01*
X137801777Y-41951777D01*
X137783598Y-41968253D01*
X137763893Y-41982867D01*
X137742849Y-41995480D01*
X137720671Y-42005970D01*
X137697571Y-42014235D01*
X137673773Y-42020196D01*
X137649504Y-42023796D01*
X137625000Y-42025000D01*
X136375000Y-42025000D01*
X136350496Y-42023796D01*
X136326227Y-42020196D01*
X136302429Y-42014235D01*
X136279329Y-42005970D01*
X136257151Y-41995480D01*
X136236107Y-41982867D01*
X136216402Y-41968253D01*
X136198223Y-41951777D01*
X136181747Y-41933598D01*
X136167133Y-41913893D01*
X136154520Y-41892849D01*
X136144030Y-41870671D01*
X136135765Y-41847571D01*
X136129804Y-41823773D01*
X136126204Y-41799504D01*
X136125000Y-41775000D01*
X136125000Y-41025000D01*
X136126204Y-41000496D01*
X136129804Y-40976227D01*
X136135765Y-40952429D01*
X136144030Y-40929329D01*
X136154520Y-40907151D01*
X136167133Y-40886107D01*
X136181747Y-40866402D01*
X136198223Y-40848223D01*
X136216402Y-40831747D01*
X136236107Y-40817133D01*
X136257151Y-40804520D01*
X136279329Y-40794030D01*
X136302429Y-40785765D01*
X136326227Y-40779804D01*
X136350496Y-40776204D01*
X136375000Y-40775000D01*
X137625000Y-40775000D01*
X137649504Y-40776204D01*
G37*
G04 #@! TD.AperFunction*
G04 #@! TA.AperFunction,SMDPad,CuDef*
G36*
X137649504Y-37976204D02*
G01*
X137673773Y-37979804D01*
X137697571Y-37985765D01*
X137720671Y-37994030D01*
X137742849Y-38004520D01*
X137763893Y-38017133D01*
X137783598Y-38031747D01*
X137801777Y-38048223D01*
X137818253Y-38066402D01*
X137832867Y-38086107D01*
X137845480Y-38107151D01*
X137855970Y-38129329D01*
X137864235Y-38152429D01*
X137870196Y-38176227D01*
X137873796Y-38200496D01*
X137875000Y-38225000D01*
X137875000Y-38975000D01*
X137873796Y-38999504D01*
X137870196Y-39023773D01*
X137864235Y-39047571D01*
X137855970Y-39070671D01*
X137845480Y-39092849D01*
X137832867Y-39113893D01*
X137818253Y-39133598D01*
X137801777Y-39151777D01*
X137783598Y-39168253D01*
X137763893Y-39182867D01*
X137742849Y-39195480D01*
X137720671Y-39205970D01*
X137697571Y-39214235D01*
X137673773Y-39220196D01*
X137649504Y-39223796D01*
X137625000Y-39225000D01*
X136375000Y-39225000D01*
X136350496Y-39223796D01*
X136326227Y-39220196D01*
X136302429Y-39214235D01*
X136279329Y-39205970D01*
X136257151Y-39195480D01*
X136236107Y-39182867D01*
X136216402Y-39168253D01*
X136198223Y-39151777D01*
X136181747Y-39133598D01*
X136167133Y-39113893D01*
X136154520Y-39092849D01*
X136144030Y-39070671D01*
X136135765Y-39047571D01*
X136129804Y-39023773D01*
X136126204Y-38999504D01*
X136125000Y-38975000D01*
X136125000Y-38225000D01*
X136126204Y-38200496D01*
X136129804Y-38176227D01*
X136135765Y-38152429D01*
X136144030Y-38129329D01*
X136154520Y-38107151D01*
X136167133Y-38086107D01*
X136181747Y-38066402D01*
X136198223Y-38048223D01*
X136216402Y-38031747D01*
X136236107Y-38017133D01*
X136257151Y-38004520D01*
X136279329Y-37994030D01*
X136302429Y-37985765D01*
X136326227Y-37979804D01*
X136350496Y-37976204D01*
X136375000Y-37975000D01*
X137625000Y-37975000D01*
X137649504Y-37976204D01*
G37*
G04 #@! TD.AperFunction*
G04 #@! TA.AperFunction,SMDPad,CuDef*
G36*
X160799504Y-34126204D02*
G01*
X160823773Y-34129804D01*
X160847571Y-34135765D01*
X160870671Y-34144030D01*
X160892849Y-34154520D01*
X160913893Y-34167133D01*
X160933598Y-34181747D01*
X160951777Y-34198223D01*
X160968253Y-34216402D01*
X160982867Y-34236107D01*
X160995480Y-34257151D01*
X161005970Y-34279329D01*
X161014235Y-34302429D01*
X161020196Y-34326227D01*
X161023796Y-34350496D01*
X161025000Y-34375000D01*
X161025000Y-35625000D01*
X161023796Y-35649504D01*
X161020196Y-35673773D01*
X161014235Y-35697571D01*
X161005970Y-35720671D01*
X160995480Y-35742849D01*
X160982867Y-35763893D01*
X160968253Y-35783598D01*
X160951777Y-35801777D01*
X160933598Y-35818253D01*
X160913893Y-35832867D01*
X160892849Y-35845480D01*
X160870671Y-35855970D01*
X160847571Y-35864235D01*
X160823773Y-35870196D01*
X160799504Y-35873796D01*
X160775000Y-35875000D01*
X160025000Y-35875000D01*
X160000496Y-35873796D01*
X159976227Y-35870196D01*
X159952429Y-35864235D01*
X159929329Y-35855970D01*
X159907151Y-35845480D01*
X159886107Y-35832867D01*
X159866402Y-35818253D01*
X159848223Y-35801777D01*
X159831747Y-35783598D01*
X159817133Y-35763893D01*
X159804520Y-35742849D01*
X159794030Y-35720671D01*
X159785765Y-35697571D01*
X159779804Y-35673773D01*
X159776204Y-35649504D01*
X159775000Y-35625000D01*
X159775000Y-34375000D01*
X159776204Y-34350496D01*
X159779804Y-34326227D01*
X159785765Y-34302429D01*
X159794030Y-34279329D01*
X159804520Y-34257151D01*
X159817133Y-34236107D01*
X159831747Y-34216402D01*
X159848223Y-34198223D01*
X159866402Y-34181747D01*
X159886107Y-34167133D01*
X159907151Y-34154520D01*
X159929329Y-34144030D01*
X159952429Y-34135765D01*
X159976227Y-34129804D01*
X160000496Y-34126204D01*
X160025000Y-34125000D01*
X160775000Y-34125000D01*
X160799504Y-34126204D01*
G37*
G04 #@! TD.AperFunction*
G04 #@! TA.AperFunction,SMDPad,CuDef*
G36*
X157999504Y-34126204D02*
G01*
X158023773Y-34129804D01*
X158047571Y-34135765D01*
X158070671Y-34144030D01*
X158092849Y-34154520D01*
X158113893Y-34167133D01*
X158133598Y-34181747D01*
X158151777Y-34198223D01*
X158168253Y-34216402D01*
X158182867Y-34236107D01*
X158195480Y-34257151D01*
X158205970Y-34279329D01*
X158214235Y-34302429D01*
X158220196Y-34326227D01*
X158223796Y-34350496D01*
X158225000Y-34375000D01*
X158225000Y-35625000D01*
X158223796Y-35649504D01*
X158220196Y-35673773D01*
X158214235Y-35697571D01*
X158205970Y-35720671D01*
X158195480Y-35742849D01*
X158182867Y-35763893D01*
X158168253Y-35783598D01*
X158151777Y-35801777D01*
X158133598Y-35818253D01*
X158113893Y-35832867D01*
X158092849Y-35845480D01*
X158070671Y-35855970D01*
X158047571Y-35864235D01*
X158023773Y-35870196D01*
X157999504Y-35873796D01*
X157975000Y-35875000D01*
X157225000Y-35875000D01*
X157200496Y-35873796D01*
X157176227Y-35870196D01*
X157152429Y-35864235D01*
X157129329Y-35855970D01*
X157107151Y-35845480D01*
X157086107Y-35832867D01*
X157066402Y-35818253D01*
X157048223Y-35801777D01*
X157031747Y-35783598D01*
X157017133Y-35763893D01*
X157004520Y-35742849D01*
X156994030Y-35720671D01*
X156985765Y-35697571D01*
X156979804Y-35673773D01*
X156976204Y-35649504D01*
X156975000Y-35625000D01*
X156975000Y-34375000D01*
X156976204Y-34350496D01*
X156979804Y-34326227D01*
X156985765Y-34302429D01*
X156994030Y-34279329D01*
X157004520Y-34257151D01*
X157017133Y-34236107D01*
X157031747Y-34216402D01*
X157048223Y-34198223D01*
X157066402Y-34181747D01*
X157086107Y-34167133D01*
X157107151Y-34154520D01*
X157129329Y-34144030D01*
X157152429Y-34135765D01*
X157176227Y-34129804D01*
X157200496Y-34126204D01*
X157225000Y-34125000D01*
X157975000Y-34125000D01*
X157999504Y-34126204D01*
G37*
G04 #@! TD.AperFunction*
G04 #@! TA.AperFunction,SMDPad,CuDef*
G36*
X160629504Y-39126204D02*
G01*
X160653773Y-39129804D01*
X160677571Y-39135765D01*
X160700671Y-39144030D01*
X160722849Y-39154520D01*
X160743893Y-39167133D01*
X160763598Y-39181747D01*
X160781777Y-39198223D01*
X160798253Y-39216402D01*
X160812867Y-39236107D01*
X160825480Y-39257151D01*
X160835970Y-39279329D01*
X160844235Y-39302429D01*
X160850196Y-39326227D01*
X160853796Y-39350496D01*
X160855000Y-39375000D01*
X160855000Y-40625000D01*
X160853796Y-40649504D01*
X160850196Y-40673773D01*
X160844235Y-40697571D01*
X160835970Y-40720671D01*
X160825480Y-40742849D01*
X160812867Y-40763893D01*
X160798253Y-40783598D01*
X160781777Y-40801777D01*
X160763598Y-40818253D01*
X160743893Y-40832867D01*
X160722849Y-40845480D01*
X160700671Y-40855970D01*
X160677571Y-40864235D01*
X160653773Y-40870196D01*
X160629504Y-40873796D01*
X160605000Y-40875000D01*
X159855000Y-40875000D01*
X159830496Y-40873796D01*
X159806227Y-40870196D01*
X159782429Y-40864235D01*
X159759329Y-40855970D01*
X159737151Y-40845480D01*
X159716107Y-40832867D01*
X159696402Y-40818253D01*
X159678223Y-40801777D01*
X159661747Y-40783598D01*
X159647133Y-40763893D01*
X159634520Y-40742849D01*
X159624030Y-40720671D01*
X159615765Y-40697571D01*
X159609804Y-40673773D01*
X159606204Y-40649504D01*
X159605000Y-40625000D01*
X159605000Y-39375000D01*
X159606204Y-39350496D01*
X159609804Y-39326227D01*
X159615765Y-39302429D01*
X159624030Y-39279329D01*
X159634520Y-39257151D01*
X159647133Y-39236107D01*
X159661747Y-39216402D01*
X159678223Y-39198223D01*
X159696402Y-39181747D01*
X159716107Y-39167133D01*
X159737151Y-39154520D01*
X159759329Y-39144030D01*
X159782429Y-39135765D01*
X159806227Y-39129804D01*
X159830496Y-39126204D01*
X159855000Y-39125000D01*
X160605000Y-39125000D01*
X160629504Y-39126204D01*
G37*
G04 #@! TD.AperFunction*
G04 #@! TA.AperFunction,SMDPad,CuDef*
G36*
X157829504Y-39126204D02*
G01*
X157853773Y-39129804D01*
X157877571Y-39135765D01*
X157900671Y-39144030D01*
X157922849Y-39154520D01*
X157943893Y-39167133D01*
X157963598Y-39181747D01*
X157981777Y-39198223D01*
X157998253Y-39216402D01*
X158012867Y-39236107D01*
X158025480Y-39257151D01*
X158035970Y-39279329D01*
X158044235Y-39302429D01*
X158050196Y-39326227D01*
X158053796Y-39350496D01*
X158055000Y-39375000D01*
X158055000Y-40625000D01*
X158053796Y-40649504D01*
X158050196Y-40673773D01*
X158044235Y-40697571D01*
X158035970Y-40720671D01*
X158025480Y-40742849D01*
X158012867Y-40763893D01*
X157998253Y-40783598D01*
X157981777Y-40801777D01*
X157963598Y-40818253D01*
X157943893Y-40832867D01*
X157922849Y-40845480D01*
X157900671Y-40855970D01*
X157877571Y-40864235D01*
X157853773Y-40870196D01*
X157829504Y-40873796D01*
X157805000Y-40875000D01*
X157055000Y-40875000D01*
X157030496Y-40873796D01*
X157006227Y-40870196D01*
X156982429Y-40864235D01*
X156959329Y-40855970D01*
X156937151Y-40845480D01*
X156916107Y-40832867D01*
X156896402Y-40818253D01*
X156878223Y-40801777D01*
X156861747Y-40783598D01*
X156847133Y-40763893D01*
X156834520Y-40742849D01*
X156824030Y-40720671D01*
X156815765Y-40697571D01*
X156809804Y-40673773D01*
X156806204Y-40649504D01*
X156805000Y-40625000D01*
X156805000Y-39375000D01*
X156806204Y-39350496D01*
X156809804Y-39326227D01*
X156815765Y-39302429D01*
X156824030Y-39279329D01*
X156834520Y-39257151D01*
X156847133Y-39236107D01*
X156861747Y-39216402D01*
X156878223Y-39198223D01*
X156896402Y-39181747D01*
X156916107Y-39167133D01*
X156937151Y-39154520D01*
X156959329Y-39144030D01*
X156982429Y-39135765D01*
X157006227Y-39129804D01*
X157030496Y-39126204D01*
X157055000Y-39125000D01*
X157805000Y-39125000D01*
X157829504Y-39126204D01*
G37*
G04 #@! TD.AperFunction*
G04 #@! TA.AperFunction,SMDPad,CuDef*
G36*
X85799504Y-68126204D02*
G01*
X85823773Y-68129804D01*
X85847571Y-68135765D01*
X85870671Y-68144030D01*
X85892849Y-68154520D01*
X85913893Y-68167133D01*
X85933598Y-68181747D01*
X85951777Y-68198223D01*
X85968253Y-68216402D01*
X85982867Y-68236107D01*
X85995480Y-68257151D01*
X86005970Y-68279329D01*
X86014235Y-68302429D01*
X86020196Y-68326227D01*
X86023796Y-68350496D01*
X86025000Y-68375000D01*
X86025000Y-69625000D01*
X86023796Y-69649504D01*
X86020196Y-69673773D01*
X86014235Y-69697571D01*
X86005970Y-69720671D01*
X85995480Y-69742849D01*
X85982867Y-69763893D01*
X85968253Y-69783598D01*
X85951777Y-69801777D01*
X85933598Y-69818253D01*
X85913893Y-69832867D01*
X85892849Y-69845480D01*
X85870671Y-69855970D01*
X85847571Y-69864235D01*
X85823773Y-69870196D01*
X85799504Y-69873796D01*
X85775000Y-69875000D01*
X85025000Y-69875000D01*
X85000496Y-69873796D01*
X84976227Y-69870196D01*
X84952429Y-69864235D01*
X84929329Y-69855970D01*
X84907151Y-69845480D01*
X84886107Y-69832867D01*
X84866402Y-69818253D01*
X84848223Y-69801777D01*
X84831747Y-69783598D01*
X84817133Y-69763893D01*
X84804520Y-69742849D01*
X84794030Y-69720671D01*
X84785765Y-69697571D01*
X84779804Y-69673773D01*
X84776204Y-69649504D01*
X84775000Y-69625000D01*
X84775000Y-68375000D01*
X84776204Y-68350496D01*
X84779804Y-68326227D01*
X84785765Y-68302429D01*
X84794030Y-68279329D01*
X84804520Y-68257151D01*
X84817133Y-68236107D01*
X84831747Y-68216402D01*
X84848223Y-68198223D01*
X84866402Y-68181747D01*
X84886107Y-68167133D01*
X84907151Y-68154520D01*
X84929329Y-68144030D01*
X84952429Y-68135765D01*
X84976227Y-68129804D01*
X85000496Y-68126204D01*
X85025000Y-68125000D01*
X85775000Y-68125000D01*
X85799504Y-68126204D01*
G37*
G04 #@! TD.AperFunction*
G04 #@! TA.AperFunction,SMDPad,CuDef*
G36*
X82999504Y-68126204D02*
G01*
X83023773Y-68129804D01*
X83047571Y-68135765D01*
X83070671Y-68144030D01*
X83092849Y-68154520D01*
X83113893Y-68167133D01*
X83133598Y-68181747D01*
X83151777Y-68198223D01*
X83168253Y-68216402D01*
X83182867Y-68236107D01*
X83195480Y-68257151D01*
X83205970Y-68279329D01*
X83214235Y-68302429D01*
X83220196Y-68326227D01*
X83223796Y-68350496D01*
X83225000Y-68375000D01*
X83225000Y-69625000D01*
X83223796Y-69649504D01*
X83220196Y-69673773D01*
X83214235Y-69697571D01*
X83205970Y-69720671D01*
X83195480Y-69742849D01*
X83182867Y-69763893D01*
X83168253Y-69783598D01*
X83151777Y-69801777D01*
X83133598Y-69818253D01*
X83113893Y-69832867D01*
X83092849Y-69845480D01*
X83070671Y-69855970D01*
X83047571Y-69864235D01*
X83023773Y-69870196D01*
X82999504Y-69873796D01*
X82975000Y-69875000D01*
X82225000Y-69875000D01*
X82200496Y-69873796D01*
X82176227Y-69870196D01*
X82152429Y-69864235D01*
X82129329Y-69855970D01*
X82107151Y-69845480D01*
X82086107Y-69832867D01*
X82066402Y-69818253D01*
X82048223Y-69801777D01*
X82031747Y-69783598D01*
X82017133Y-69763893D01*
X82004520Y-69742849D01*
X81994030Y-69720671D01*
X81985765Y-69697571D01*
X81979804Y-69673773D01*
X81976204Y-69649504D01*
X81975000Y-69625000D01*
X81975000Y-68375000D01*
X81976204Y-68350496D01*
X81979804Y-68326227D01*
X81985765Y-68302429D01*
X81994030Y-68279329D01*
X82004520Y-68257151D01*
X82017133Y-68236107D01*
X82031747Y-68216402D01*
X82048223Y-68198223D01*
X82066402Y-68181747D01*
X82086107Y-68167133D01*
X82107151Y-68154520D01*
X82129329Y-68144030D01*
X82152429Y-68135765D01*
X82176227Y-68129804D01*
X82200496Y-68126204D01*
X82225000Y-68125000D01*
X82975000Y-68125000D01*
X82999504Y-68126204D01*
G37*
G04 #@! TD.AperFunction*
D17*
X162000000Y-52000000D03*
X162000000Y-53000000D03*
X162000000Y-54000000D03*
X162000000Y-55000000D03*
X162000000Y-56000000D03*
D18*
X162000000Y-57000000D03*
D17*
X162000000Y-45000000D03*
X161000000Y-45000000D03*
X160000000Y-45000000D03*
X159000000Y-45000000D03*
X158000000Y-45000000D03*
X157000000Y-45000000D03*
X156000000Y-45000000D03*
D18*
X155000000Y-45000000D03*
D19*
X93000000Y-45080000D03*
X93000000Y-42540000D03*
D20*
X93000000Y-40000000D03*
G04 #@! TA.AperFunction,SMDPad,CuDef*
D16*
G36*
X96799504Y-51126204D02*
G01*
X96823773Y-51129804D01*
X96847571Y-51135765D01*
X96870671Y-51144030D01*
X96892849Y-51154520D01*
X96913893Y-51167133D01*
X96933598Y-51181747D01*
X96951777Y-51198223D01*
X96968253Y-51216402D01*
X96982867Y-51236107D01*
X96995480Y-51257151D01*
X97005970Y-51279329D01*
X97014235Y-51302429D01*
X97020196Y-51326227D01*
X97023796Y-51350496D01*
X97025000Y-51375000D01*
X97025000Y-52625000D01*
X97023796Y-52649504D01*
X97020196Y-52673773D01*
X97014235Y-52697571D01*
X97005970Y-52720671D01*
X96995480Y-52742849D01*
X96982867Y-52763893D01*
X96968253Y-52783598D01*
X96951777Y-52801777D01*
X96933598Y-52818253D01*
X96913893Y-52832867D01*
X96892849Y-52845480D01*
X96870671Y-52855970D01*
X96847571Y-52864235D01*
X96823773Y-52870196D01*
X96799504Y-52873796D01*
X96775000Y-52875000D01*
X96025000Y-52875000D01*
X96000496Y-52873796D01*
X95976227Y-52870196D01*
X95952429Y-52864235D01*
X95929329Y-52855970D01*
X95907151Y-52845480D01*
X95886107Y-52832867D01*
X95866402Y-52818253D01*
X95848223Y-52801777D01*
X95831747Y-52783598D01*
X95817133Y-52763893D01*
X95804520Y-52742849D01*
X95794030Y-52720671D01*
X95785765Y-52697571D01*
X95779804Y-52673773D01*
X95776204Y-52649504D01*
X95775000Y-52625000D01*
X95775000Y-51375000D01*
X95776204Y-51350496D01*
X95779804Y-51326227D01*
X95785765Y-51302429D01*
X95794030Y-51279329D01*
X95804520Y-51257151D01*
X95817133Y-51236107D01*
X95831747Y-51216402D01*
X95848223Y-51198223D01*
X95866402Y-51181747D01*
X95886107Y-51167133D01*
X95907151Y-51154520D01*
X95929329Y-51144030D01*
X95952429Y-51135765D01*
X95976227Y-51129804D01*
X96000496Y-51126204D01*
X96025000Y-51125000D01*
X96775000Y-51125000D01*
X96799504Y-51126204D01*
G37*
G04 #@! TD.AperFunction*
G04 #@! TA.AperFunction,SMDPad,CuDef*
G36*
X93999504Y-51126204D02*
G01*
X94023773Y-51129804D01*
X94047571Y-51135765D01*
X94070671Y-51144030D01*
X94092849Y-51154520D01*
X94113893Y-51167133D01*
X94133598Y-51181747D01*
X94151777Y-51198223D01*
X94168253Y-51216402D01*
X94182867Y-51236107D01*
X94195480Y-51257151D01*
X94205970Y-51279329D01*
X94214235Y-51302429D01*
X94220196Y-51326227D01*
X94223796Y-51350496D01*
X94225000Y-51375000D01*
X94225000Y-52625000D01*
X94223796Y-52649504D01*
X94220196Y-52673773D01*
X94214235Y-52697571D01*
X94205970Y-52720671D01*
X94195480Y-52742849D01*
X94182867Y-52763893D01*
X94168253Y-52783598D01*
X94151777Y-52801777D01*
X94133598Y-52818253D01*
X94113893Y-52832867D01*
X94092849Y-52845480D01*
X94070671Y-52855970D01*
X94047571Y-52864235D01*
X94023773Y-52870196D01*
X93999504Y-52873796D01*
X93975000Y-52875000D01*
X93225000Y-52875000D01*
X93200496Y-52873796D01*
X93176227Y-52870196D01*
X93152429Y-52864235D01*
X93129329Y-52855970D01*
X93107151Y-52845480D01*
X93086107Y-52832867D01*
X93066402Y-52818253D01*
X93048223Y-52801777D01*
X93031747Y-52783598D01*
X93017133Y-52763893D01*
X93004520Y-52742849D01*
X92994030Y-52720671D01*
X92985765Y-52697571D01*
X92979804Y-52673773D01*
X92976204Y-52649504D01*
X92975000Y-52625000D01*
X92975000Y-51375000D01*
X92976204Y-51350496D01*
X92979804Y-51326227D01*
X92985765Y-51302429D01*
X92994030Y-51279329D01*
X93004520Y-51257151D01*
X93017133Y-51236107D01*
X93031747Y-51216402D01*
X93048223Y-51198223D01*
X93066402Y-51181747D01*
X93086107Y-51167133D01*
X93107151Y-51154520D01*
X93129329Y-51144030D01*
X93152429Y-51135765D01*
X93176227Y-51129804D01*
X93200496Y-51126204D01*
X93225000Y-51125000D01*
X93975000Y-51125000D01*
X93999504Y-51126204D01*
G37*
G04 #@! TD.AperFunction*
G04 #@! TA.AperFunction,SMDPad,CuDef*
G36*
X95649504Y-63976204D02*
G01*
X95673773Y-63979804D01*
X95697571Y-63985765D01*
X95720671Y-63994030D01*
X95742849Y-64004520D01*
X95763893Y-64017133D01*
X95783598Y-64031747D01*
X95801777Y-64048223D01*
X95818253Y-64066402D01*
X95832867Y-64086107D01*
X95845480Y-64107151D01*
X95855970Y-64129329D01*
X95864235Y-64152429D01*
X95870196Y-64176227D01*
X95873796Y-64200496D01*
X95875000Y-64225000D01*
X95875000Y-64975000D01*
X95873796Y-64999504D01*
X95870196Y-65023773D01*
X95864235Y-65047571D01*
X95855970Y-65070671D01*
X95845480Y-65092849D01*
X95832867Y-65113893D01*
X95818253Y-65133598D01*
X95801777Y-65151777D01*
X95783598Y-65168253D01*
X95763893Y-65182867D01*
X95742849Y-65195480D01*
X95720671Y-65205970D01*
X95697571Y-65214235D01*
X95673773Y-65220196D01*
X95649504Y-65223796D01*
X95625000Y-65225000D01*
X94375000Y-65225000D01*
X94350496Y-65223796D01*
X94326227Y-65220196D01*
X94302429Y-65214235D01*
X94279329Y-65205970D01*
X94257151Y-65195480D01*
X94236107Y-65182867D01*
X94216402Y-65168253D01*
X94198223Y-65151777D01*
X94181747Y-65133598D01*
X94167133Y-65113893D01*
X94154520Y-65092849D01*
X94144030Y-65070671D01*
X94135765Y-65047571D01*
X94129804Y-65023773D01*
X94126204Y-64999504D01*
X94125000Y-64975000D01*
X94125000Y-64225000D01*
X94126204Y-64200496D01*
X94129804Y-64176227D01*
X94135765Y-64152429D01*
X94144030Y-64129329D01*
X94154520Y-64107151D01*
X94167133Y-64086107D01*
X94181747Y-64066402D01*
X94198223Y-64048223D01*
X94216402Y-64031747D01*
X94236107Y-64017133D01*
X94257151Y-64004520D01*
X94279329Y-63994030D01*
X94302429Y-63985765D01*
X94326227Y-63979804D01*
X94350496Y-63976204D01*
X94375000Y-63975000D01*
X95625000Y-63975000D01*
X95649504Y-63976204D01*
G37*
G04 #@! TD.AperFunction*
G04 #@! TA.AperFunction,SMDPad,CuDef*
G36*
X95649504Y-66776204D02*
G01*
X95673773Y-66779804D01*
X95697571Y-66785765D01*
X95720671Y-66794030D01*
X95742849Y-66804520D01*
X95763893Y-66817133D01*
X95783598Y-66831747D01*
X95801777Y-66848223D01*
X95818253Y-66866402D01*
X95832867Y-66886107D01*
X95845480Y-66907151D01*
X95855970Y-66929329D01*
X95864235Y-66952429D01*
X95870196Y-66976227D01*
X95873796Y-67000496D01*
X95875000Y-67025000D01*
X95875000Y-67775000D01*
X95873796Y-67799504D01*
X95870196Y-67823773D01*
X95864235Y-67847571D01*
X95855970Y-67870671D01*
X95845480Y-67892849D01*
X95832867Y-67913893D01*
X95818253Y-67933598D01*
X95801777Y-67951777D01*
X95783598Y-67968253D01*
X95763893Y-67982867D01*
X95742849Y-67995480D01*
X95720671Y-68005970D01*
X95697571Y-68014235D01*
X95673773Y-68020196D01*
X95649504Y-68023796D01*
X95625000Y-68025000D01*
X94375000Y-68025000D01*
X94350496Y-68023796D01*
X94326227Y-68020196D01*
X94302429Y-68014235D01*
X94279329Y-68005970D01*
X94257151Y-67995480D01*
X94236107Y-67982867D01*
X94216402Y-67968253D01*
X94198223Y-67951777D01*
X94181747Y-67933598D01*
X94167133Y-67913893D01*
X94154520Y-67892849D01*
X94144030Y-67870671D01*
X94135765Y-67847571D01*
X94129804Y-67823773D01*
X94126204Y-67799504D01*
X94125000Y-67775000D01*
X94125000Y-67025000D01*
X94126204Y-67000496D01*
X94129804Y-66976227D01*
X94135765Y-66952429D01*
X94144030Y-66929329D01*
X94154520Y-66907151D01*
X94167133Y-66886107D01*
X94181747Y-66866402D01*
X94198223Y-66848223D01*
X94216402Y-66831747D01*
X94236107Y-66817133D01*
X94257151Y-66804520D01*
X94279329Y-66794030D01*
X94302429Y-66785765D01*
X94326227Y-66779804D01*
X94350496Y-66776204D01*
X94375000Y-66775000D01*
X95625000Y-66775000D01*
X95649504Y-66776204D01*
G37*
G04 #@! TD.AperFunction*
D19*
X118000000Y-57540000D03*
X118000000Y-55000000D03*
D20*
X118000000Y-52460000D03*
D19*
X106000000Y-57080000D03*
X106000000Y-54540000D03*
D20*
X106000000Y-52000000D03*
D21*
X106000000Y-63000000D03*
D22*
X106000000Y-65540000D03*
X106000000Y-64270000D03*
G04 #@! TA.AperFunction,SMDPad,CuDef*
D16*
G36*
X131649504Y-40776204D02*
G01*
X131673773Y-40779804D01*
X131697571Y-40785765D01*
X131720671Y-40794030D01*
X131742849Y-40804520D01*
X131763893Y-40817133D01*
X131783598Y-40831747D01*
X131801777Y-40848223D01*
X131818253Y-40866402D01*
X131832867Y-40886107D01*
X131845480Y-40907151D01*
X131855970Y-40929329D01*
X131864235Y-40952429D01*
X131870196Y-40976227D01*
X131873796Y-41000496D01*
X131875000Y-41025000D01*
X131875000Y-41775000D01*
X131873796Y-41799504D01*
X131870196Y-41823773D01*
X131864235Y-41847571D01*
X131855970Y-41870671D01*
X131845480Y-41892849D01*
X131832867Y-41913893D01*
X131818253Y-41933598D01*
X131801777Y-41951777D01*
X131783598Y-41968253D01*
X131763893Y-41982867D01*
X131742849Y-41995480D01*
X131720671Y-42005970D01*
X131697571Y-42014235D01*
X131673773Y-42020196D01*
X131649504Y-42023796D01*
X131625000Y-42025000D01*
X130375000Y-42025000D01*
X130350496Y-42023796D01*
X130326227Y-42020196D01*
X130302429Y-42014235D01*
X130279329Y-42005970D01*
X130257151Y-41995480D01*
X130236107Y-41982867D01*
X130216402Y-41968253D01*
X130198223Y-41951777D01*
X130181747Y-41933598D01*
X130167133Y-41913893D01*
X130154520Y-41892849D01*
X130144030Y-41870671D01*
X130135765Y-41847571D01*
X130129804Y-41823773D01*
X130126204Y-41799504D01*
X130125000Y-41775000D01*
X130125000Y-41025000D01*
X130126204Y-41000496D01*
X130129804Y-40976227D01*
X130135765Y-40952429D01*
X130144030Y-40929329D01*
X130154520Y-40907151D01*
X130167133Y-40886107D01*
X130181747Y-40866402D01*
X130198223Y-40848223D01*
X130216402Y-40831747D01*
X130236107Y-40817133D01*
X130257151Y-40804520D01*
X130279329Y-40794030D01*
X130302429Y-40785765D01*
X130326227Y-40779804D01*
X130350496Y-40776204D01*
X130375000Y-40775000D01*
X131625000Y-40775000D01*
X131649504Y-40776204D01*
G37*
G04 #@! TD.AperFunction*
G04 #@! TA.AperFunction,SMDPad,CuDef*
G36*
X131649504Y-37976204D02*
G01*
X131673773Y-37979804D01*
X131697571Y-37985765D01*
X131720671Y-37994030D01*
X131742849Y-38004520D01*
X131763893Y-38017133D01*
X131783598Y-38031747D01*
X131801777Y-38048223D01*
X131818253Y-38066402D01*
X131832867Y-38086107D01*
X131845480Y-38107151D01*
X131855970Y-38129329D01*
X131864235Y-38152429D01*
X131870196Y-38176227D01*
X131873796Y-38200496D01*
X131875000Y-38225000D01*
X131875000Y-38975000D01*
X131873796Y-38999504D01*
X131870196Y-39023773D01*
X131864235Y-39047571D01*
X131855970Y-39070671D01*
X131845480Y-39092849D01*
X131832867Y-39113893D01*
X131818253Y-39133598D01*
X131801777Y-39151777D01*
X131783598Y-39168253D01*
X131763893Y-39182867D01*
X131742849Y-39195480D01*
X131720671Y-39205970D01*
X131697571Y-39214235D01*
X131673773Y-39220196D01*
X131649504Y-39223796D01*
X131625000Y-39225000D01*
X130375000Y-39225000D01*
X130350496Y-39223796D01*
X130326227Y-39220196D01*
X130302429Y-39214235D01*
X130279329Y-39205970D01*
X130257151Y-39195480D01*
X130236107Y-39182867D01*
X130216402Y-39168253D01*
X130198223Y-39151777D01*
X130181747Y-39133598D01*
X130167133Y-39113893D01*
X130154520Y-39092849D01*
X130144030Y-39070671D01*
X130135765Y-39047571D01*
X130129804Y-39023773D01*
X130126204Y-38999504D01*
X130125000Y-38975000D01*
X130125000Y-38225000D01*
X130126204Y-38200496D01*
X130129804Y-38176227D01*
X130135765Y-38152429D01*
X130144030Y-38129329D01*
X130154520Y-38107151D01*
X130167133Y-38086107D01*
X130181747Y-38066402D01*
X130198223Y-38048223D01*
X130216402Y-38031747D01*
X130236107Y-38017133D01*
X130257151Y-38004520D01*
X130279329Y-37994030D01*
X130302429Y-37985765D01*
X130326227Y-37979804D01*
X130350496Y-37976204D01*
X130375000Y-37975000D01*
X131625000Y-37975000D01*
X131649504Y-37976204D01*
G37*
G04 #@! TD.AperFunction*
G04 #@! TA.AperFunction,SMDPad,CuDef*
G36*
X78649504Y-50976204D02*
G01*
X78673773Y-50979804D01*
X78697571Y-50985765D01*
X78720671Y-50994030D01*
X78742849Y-51004520D01*
X78763893Y-51017133D01*
X78783598Y-51031747D01*
X78801777Y-51048223D01*
X78818253Y-51066402D01*
X78832867Y-51086107D01*
X78845480Y-51107151D01*
X78855970Y-51129329D01*
X78864235Y-51152429D01*
X78870196Y-51176227D01*
X78873796Y-51200496D01*
X78875000Y-51225000D01*
X78875000Y-51975000D01*
X78873796Y-51999504D01*
X78870196Y-52023773D01*
X78864235Y-52047571D01*
X78855970Y-52070671D01*
X78845480Y-52092849D01*
X78832867Y-52113893D01*
X78818253Y-52133598D01*
X78801777Y-52151777D01*
X78783598Y-52168253D01*
X78763893Y-52182867D01*
X78742849Y-52195480D01*
X78720671Y-52205970D01*
X78697571Y-52214235D01*
X78673773Y-52220196D01*
X78649504Y-52223796D01*
X78625000Y-52225000D01*
X77375000Y-52225000D01*
X77350496Y-52223796D01*
X77326227Y-52220196D01*
X77302429Y-52214235D01*
X77279329Y-52205970D01*
X77257151Y-52195480D01*
X77236107Y-52182867D01*
X77216402Y-52168253D01*
X77198223Y-52151777D01*
X77181747Y-52133598D01*
X77167133Y-52113893D01*
X77154520Y-52092849D01*
X77144030Y-52070671D01*
X77135765Y-52047571D01*
X77129804Y-52023773D01*
X77126204Y-51999504D01*
X77125000Y-51975000D01*
X77125000Y-51225000D01*
X77126204Y-51200496D01*
X77129804Y-51176227D01*
X77135765Y-51152429D01*
X77144030Y-51129329D01*
X77154520Y-51107151D01*
X77167133Y-51086107D01*
X77181747Y-51066402D01*
X77198223Y-51048223D01*
X77216402Y-51031747D01*
X77236107Y-51017133D01*
X77257151Y-51004520D01*
X77279329Y-50994030D01*
X77302429Y-50985765D01*
X77326227Y-50979804D01*
X77350496Y-50976204D01*
X77375000Y-50975000D01*
X78625000Y-50975000D01*
X78649504Y-50976204D01*
G37*
G04 #@! TD.AperFunction*
G04 #@! TA.AperFunction,SMDPad,CuDef*
G36*
X78649504Y-53776204D02*
G01*
X78673773Y-53779804D01*
X78697571Y-53785765D01*
X78720671Y-53794030D01*
X78742849Y-53804520D01*
X78763893Y-53817133D01*
X78783598Y-53831747D01*
X78801777Y-53848223D01*
X78818253Y-53866402D01*
X78832867Y-53886107D01*
X78845480Y-53907151D01*
X78855970Y-53929329D01*
X78864235Y-53952429D01*
X78870196Y-53976227D01*
X78873796Y-54000496D01*
X78875000Y-54025000D01*
X78875000Y-54775000D01*
X78873796Y-54799504D01*
X78870196Y-54823773D01*
X78864235Y-54847571D01*
X78855970Y-54870671D01*
X78845480Y-54892849D01*
X78832867Y-54913893D01*
X78818253Y-54933598D01*
X78801777Y-54951777D01*
X78783598Y-54968253D01*
X78763893Y-54982867D01*
X78742849Y-54995480D01*
X78720671Y-55005970D01*
X78697571Y-55014235D01*
X78673773Y-55020196D01*
X78649504Y-55023796D01*
X78625000Y-55025000D01*
X77375000Y-55025000D01*
X77350496Y-55023796D01*
X77326227Y-55020196D01*
X77302429Y-55014235D01*
X77279329Y-55005970D01*
X77257151Y-54995480D01*
X77236107Y-54982867D01*
X77216402Y-54968253D01*
X77198223Y-54951777D01*
X77181747Y-54933598D01*
X77167133Y-54913893D01*
X77154520Y-54892849D01*
X77144030Y-54870671D01*
X77135765Y-54847571D01*
X77129804Y-54823773D01*
X77126204Y-54799504D01*
X77125000Y-54775000D01*
X77125000Y-54025000D01*
X77126204Y-54000496D01*
X77129804Y-53976227D01*
X77135765Y-53952429D01*
X77144030Y-53929329D01*
X77154520Y-53907151D01*
X77167133Y-53886107D01*
X77181747Y-53866402D01*
X77198223Y-53848223D01*
X77216402Y-53831747D01*
X77236107Y-53817133D01*
X77257151Y-53804520D01*
X77279329Y-53794030D01*
X77302429Y-53785765D01*
X77326227Y-53779804D01*
X77350496Y-53776204D01*
X77375000Y-53775000D01*
X78625000Y-53775000D01*
X78649504Y-53776204D01*
G37*
G04 #@! TD.AperFunction*
G04 #@! TA.AperFunction,SMDPad,CuDef*
G36*
X69999504Y-39126204D02*
G01*
X70023773Y-39129804D01*
X70047571Y-39135765D01*
X70070671Y-39144030D01*
X70092849Y-39154520D01*
X70113893Y-39167133D01*
X70133598Y-39181747D01*
X70151777Y-39198223D01*
X70168253Y-39216402D01*
X70182867Y-39236107D01*
X70195480Y-39257151D01*
X70205970Y-39279329D01*
X70214235Y-39302429D01*
X70220196Y-39326227D01*
X70223796Y-39350496D01*
X70225000Y-39375000D01*
X70225000Y-40625000D01*
X70223796Y-40649504D01*
X70220196Y-40673773D01*
X70214235Y-40697571D01*
X70205970Y-40720671D01*
X70195480Y-40742849D01*
X70182867Y-40763893D01*
X70168253Y-40783598D01*
X70151777Y-40801777D01*
X70133598Y-40818253D01*
X70113893Y-40832867D01*
X70092849Y-40845480D01*
X70070671Y-40855970D01*
X70047571Y-40864235D01*
X70023773Y-40870196D01*
X69999504Y-40873796D01*
X69975000Y-40875000D01*
X69225000Y-40875000D01*
X69200496Y-40873796D01*
X69176227Y-40870196D01*
X69152429Y-40864235D01*
X69129329Y-40855970D01*
X69107151Y-40845480D01*
X69086107Y-40832867D01*
X69066402Y-40818253D01*
X69048223Y-40801777D01*
X69031747Y-40783598D01*
X69017133Y-40763893D01*
X69004520Y-40742849D01*
X68994030Y-40720671D01*
X68985765Y-40697571D01*
X68979804Y-40673773D01*
X68976204Y-40649504D01*
X68975000Y-40625000D01*
X68975000Y-39375000D01*
X68976204Y-39350496D01*
X68979804Y-39326227D01*
X68985765Y-39302429D01*
X68994030Y-39279329D01*
X69004520Y-39257151D01*
X69017133Y-39236107D01*
X69031747Y-39216402D01*
X69048223Y-39198223D01*
X69066402Y-39181747D01*
X69086107Y-39167133D01*
X69107151Y-39154520D01*
X69129329Y-39144030D01*
X69152429Y-39135765D01*
X69176227Y-39129804D01*
X69200496Y-39126204D01*
X69225000Y-39125000D01*
X69975000Y-39125000D01*
X69999504Y-39126204D01*
G37*
G04 #@! TD.AperFunction*
G04 #@! TA.AperFunction,SMDPad,CuDef*
G36*
X72799504Y-39126204D02*
G01*
X72823773Y-39129804D01*
X72847571Y-39135765D01*
X72870671Y-39144030D01*
X72892849Y-39154520D01*
X72913893Y-39167133D01*
X72933598Y-39181747D01*
X72951777Y-39198223D01*
X72968253Y-39216402D01*
X72982867Y-39236107D01*
X72995480Y-39257151D01*
X73005970Y-39279329D01*
X73014235Y-39302429D01*
X73020196Y-39326227D01*
X73023796Y-39350496D01*
X73025000Y-39375000D01*
X73025000Y-40625000D01*
X73023796Y-40649504D01*
X73020196Y-40673773D01*
X73014235Y-40697571D01*
X73005970Y-40720671D01*
X72995480Y-40742849D01*
X72982867Y-40763893D01*
X72968253Y-40783598D01*
X72951777Y-40801777D01*
X72933598Y-40818253D01*
X72913893Y-40832867D01*
X72892849Y-40845480D01*
X72870671Y-40855970D01*
X72847571Y-40864235D01*
X72823773Y-40870196D01*
X72799504Y-40873796D01*
X72775000Y-40875000D01*
X72025000Y-40875000D01*
X72000496Y-40873796D01*
X71976227Y-40870196D01*
X71952429Y-40864235D01*
X71929329Y-40855970D01*
X71907151Y-40845480D01*
X71886107Y-40832867D01*
X71866402Y-40818253D01*
X71848223Y-40801777D01*
X71831747Y-40783598D01*
X71817133Y-40763893D01*
X71804520Y-40742849D01*
X71794030Y-40720671D01*
X71785765Y-40697571D01*
X71779804Y-40673773D01*
X71776204Y-40649504D01*
X71775000Y-40625000D01*
X71775000Y-39375000D01*
X71776204Y-39350496D01*
X71779804Y-39326227D01*
X71785765Y-39302429D01*
X71794030Y-39279329D01*
X71804520Y-39257151D01*
X71817133Y-39236107D01*
X71831747Y-39216402D01*
X71848223Y-39198223D01*
X71866402Y-39181747D01*
X71886107Y-39167133D01*
X71907151Y-39154520D01*
X71929329Y-39144030D01*
X71952429Y-39135765D01*
X71976227Y-39129804D01*
X72000496Y-39126204D01*
X72025000Y-39125000D01*
X72775000Y-39125000D01*
X72799504Y-39126204D01*
G37*
G04 #@! TD.AperFunction*
G04 #@! TA.AperFunction,SMDPad,CuDef*
G36*
X42649504Y-53776204D02*
G01*
X42673773Y-53779804D01*
X42697571Y-53785765D01*
X42720671Y-53794030D01*
X42742849Y-53804520D01*
X42763893Y-53817133D01*
X42783598Y-53831747D01*
X42801777Y-53848223D01*
X42818253Y-53866402D01*
X42832867Y-53886107D01*
X42845480Y-53907151D01*
X42855970Y-53929329D01*
X42864235Y-53952429D01*
X42870196Y-53976227D01*
X42873796Y-54000496D01*
X42875000Y-54025000D01*
X42875000Y-54775000D01*
X42873796Y-54799504D01*
X42870196Y-54823773D01*
X42864235Y-54847571D01*
X42855970Y-54870671D01*
X42845480Y-54892849D01*
X42832867Y-54913893D01*
X42818253Y-54933598D01*
X42801777Y-54951777D01*
X42783598Y-54968253D01*
X42763893Y-54982867D01*
X42742849Y-54995480D01*
X42720671Y-55005970D01*
X42697571Y-55014235D01*
X42673773Y-55020196D01*
X42649504Y-55023796D01*
X42625000Y-55025000D01*
X41375000Y-55025000D01*
X41350496Y-55023796D01*
X41326227Y-55020196D01*
X41302429Y-55014235D01*
X41279329Y-55005970D01*
X41257151Y-54995480D01*
X41236107Y-54982867D01*
X41216402Y-54968253D01*
X41198223Y-54951777D01*
X41181747Y-54933598D01*
X41167133Y-54913893D01*
X41154520Y-54892849D01*
X41144030Y-54870671D01*
X41135765Y-54847571D01*
X41129804Y-54823773D01*
X41126204Y-54799504D01*
X41125000Y-54775000D01*
X41125000Y-54025000D01*
X41126204Y-54000496D01*
X41129804Y-53976227D01*
X41135765Y-53952429D01*
X41144030Y-53929329D01*
X41154520Y-53907151D01*
X41167133Y-53886107D01*
X41181747Y-53866402D01*
X41198223Y-53848223D01*
X41216402Y-53831747D01*
X41236107Y-53817133D01*
X41257151Y-53804520D01*
X41279329Y-53794030D01*
X41302429Y-53785765D01*
X41326227Y-53779804D01*
X41350496Y-53776204D01*
X41375000Y-53775000D01*
X42625000Y-53775000D01*
X42649504Y-53776204D01*
G37*
G04 #@! TD.AperFunction*
G04 #@! TA.AperFunction,SMDPad,CuDef*
G36*
X42649504Y-50976204D02*
G01*
X42673773Y-50979804D01*
X42697571Y-50985765D01*
X42720671Y-50994030D01*
X42742849Y-51004520D01*
X42763893Y-51017133D01*
X42783598Y-51031747D01*
X42801777Y-51048223D01*
X42818253Y-51066402D01*
X42832867Y-51086107D01*
X42845480Y-51107151D01*
X42855970Y-51129329D01*
X42864235Y-51152429D01*
X42870196Y-51176227D01*
X42873796Y-51200496D01*
X42875000Y-51225000D01*
X42875000Y-51975000D01*
X42873796Y-51999504D01*
X42870196Y-52023773D01*
X42864235Y-52047571D01*
X42855970Y-52070671D01*
X42845480Y-52092849D01*
X42832867Y-52113893D01*
X42818253Y-52133598D01*
X42801777Y-52151777D01*
X42783598Y-52168253D01*
X42763893Y-52182867D01*
X42742849Y-52195480D01*
X42720671Y-52205970D01*
X42697571Y-52214235D01*
X42673773Y-52220196D01*
X42649504Y-52223796D01*
X42625000Y-52225000D01*
X41375000Y-52225000D01*
X41350496Y-52223796D01*
X41326227Y-52220196D01*
X41302429Y-52214235D01*
X41279329Y-52205970D01*
X41257151Y-52195480D01*
X41236107Y-52182867D01*
X41216402Y-52168253D01*
X41198223Y-52151777D01*
X41181747Y-52133598D01*
X41167133Y-52113893D01*
X41154520Y-52092849D01*
X41144030Y-52070671D01*
X41135765Y-52047571D01*
X41129804Y-52023773D01*
X41126204Y-51999504D01*
X41125000Y-51975000D01*
X41125000Y-51225000D01*
X41126204Y-51200496D01*
X41129804Y-51176227D01*
X41135765Y-51152429D01*
X41144030Y-51129329D01*
X41154520Y-51107151D01*
X41167133Y-51086107D01*
X41181747Y-51066402D01*
X41198223Y-51048223D01*
X41216402Y-51031747D01*
X41236107Y-51017133D01*
X41257151Y-51004520D01*
X41279329Y-50994030D01*
X41302429Y-50985765D01*
X41326227Y-50979804D01*
X41350496Y-50976204D01*
X41375000Y-50975000D01*
X42625000Y-50975000D01*
X42649504Y-50976204D01*
G37*
G04 #@! TD.AperFunction*
G04 #@! TA.AperFunction,SMDPad,CuDef*
G36*
X46999504Y-39126204D02*
G01*
X47023773Y-39129804D01*
X47047571Y-39135765D01*
X47070671Y-39144030D01*
X47092849Y-39154520D01*
X47113893Y-39167133D01*
X47133598Y-39181747D01*
X47151777Y-39198223D01*
X47168253Y-39216402D01*
X47182867Y-39236107D01*
X47195480Y-39257151D01*
X47205970Y-39279329D01*
X47214235Y-39302429D01*
X47220196Y-39326227D01*
X47223796Y-39350496D01*
X47225000Y-39375000D01*
X47225000Y-40625000D01*
X47223796Y-40649504D01*
X47220196Y-40673773D01*
X47214235Y-40697571D01*
X47205970Y-40720671D01*
X47195480Y-40742849D01*
X47182867Y-40763893D01*
X47168253Y-40783598D01*
X47151777Y-40801777D01*
X47133598Y-40818253D01*
X47113893Y-40832867D01*
X47092849Y-40845480D01*
X47070671Y-40855970D01*
X47047571Y-40864235D01*
X47023773Y-40870196D01*
X46999504Y-40873796D01*
X46975000Y-40875000D01*
X46225000Y-40875000D01*
X46200496Y-40873796D01*
X46176227Y-40870196D01*
X46152429Y-40864235D01*
X46129329Y-40855970D01*
X46107151Y-40845480D01*
X46086107Y-40832867D01*
X46066402Y-40818253D01*
X46048223Y-40801777D01*
X46031747Y-40783598D01*
X46017133Y-40763893D01*
X46004520Y-40742849D01*
X45994030Y-40720671D01*
X45985765Y-40697571D01*
X45979804Y-40673773D01*
X45976204Y-40649504D01*
X45975000Y-40625000D01*
X45975000Y-39375000D01*
X45976204Y-39350496D01*
X45979804Y-39326227D01*
X45985765Y-39302429D01*
X45994030Y-39279329D01*
X46004520Y-39257151D01*
X46017133Y-39236107D01*
X46031747Y-39216402D01*
X46048223Y-39198223D01*
X46066402Y-39181747D01*
X46086107Y-39167133D01*
X46107151Y-39154520D01*
X46129329Y-39144030D01*
X46152429Y-39135765D01*
X46176227Y-39129804D01*
X46200496Y-39126204D01*
X46225000Y-39125000D01*
X46975000Y-39125000D01*
X46999504Y-39126204D01*
G37*
G04 #@! TD.AperFunction*
G04 #@! TA.AperFunction,SMDPad,CuDef*
G36*
X49799504Y-39126204D02*
G01*
X49823773Y-39129804D01*
X49847571Y-39135765D01*
X49870671Y-39144030D01*
X49892849Y-39154520D01*
X49913893Y-39167133D01*
X49933598Y-39181747D01*
X49951777Y-39198223D01*
X49968253Y-39216402D01*
X49982867Y-39236107D01*
X49995480Y-39257151D01*
X50005970Y-39279329D01*
X50014235Y-39302429D01*
X50020196Y-39326227D01*
X50023796Y-39350496D01*
X50025000Y-39375000D01*
X50025000Y-40625000D01*
X50023796Y-40649504D01*
X50020196Y-40673773D01*
X50014235Y-40697571D01*
X50005970Y-40720671D01*
X49995480Y-40742849D01*
X49982867Y-40763893D01*
X49968253Y-40783598D01*
X49951777Y-40801777D01*
X49933598Y-40818253D01*
X49913893Y-40832867D01*
X49892849Y-40845480D01*
X49870671Y-40855970D01*
X49847571Y-40864235D01*
X49823773Y-40870196D01*
X49799504Y-40873796D01*
X49775000Y-40875000D01*
X49025000Y-40875000D01*
X49000496Y-40873796D01*
X48976227Y-40870196D01*
X48952429Y-40864235D01*
X48929329Y-40855970D01*
X48907151Y-40845480D01*
X48886107Y-40832867D01*
X48866402Y-40818253D01*
X48848223Y-40801777D01*
X48831747Y-40783598D01*
X48817133Y-40763893D01*
X48804520Y-40742849D01*
X48794030Y-40720671D01*
X48785765Y-40697571D01*
X48779804Y-40673773D01*
X48776204Y-40649504D01*
X48775000Y-40625000D01*
X48775000Y-39375000D01*
X48776204Y-39350496D01*
X48779804Y-39326227D01*
X48785765Y-39302429D01*
X48794030Y-39279329D01*
X48804520Y-39257151D01*
X48817133Y-39236107D01*
X48831747Y-39216402D01*
X48848223Y-39198223D01*
X48866402Y-39181747D01*
X48886107Y-39167133D01*
X48907151Y-39154520D01*
X48929329Y-39144030D01*
X48952429Y-39135765D01*
X48976227Y-39129804D01*
X49000496Y-39126204D01*
X49025000Y-39125000D01*
X49775000Y-39125000D01*
X49799504Y-39126204D01*
G37*
G04 #@! TD.AperFunction*
D21*
X70000000Y-51000000D03*
D22*
X70000000Y-53540000D03*
X70000000Y-52270000D03*
D21*
X49000000Y-50730000D03*
D22*
X49000000Y-53270000D03*
X49000000Y-52000000D03*
D19*
X70000000Y-66540000D03*
X70000000Y-64000000D03*
D20*
X70000000Y-61460000D03*
D19*
X49000000Y-67080000D03*
X49000000Y-64540000D03*
D20*
X49000000Y-62000000D03*
D19*
X64000000Y-45080000D03*
X64000000Y-42540000D03*
D20*
X64000000Y-40000000D03*
D19*
X55000000Y-45080000D03*
X55000000Y-42540000D03*
D20*
X55000000Y-40000000D03*
G04 #@! TA.AperFunction,SMDPad,CuDef*
D16*
G36*
X39949504Y-44426204D02*
G01*
X39973773Y-44429804D01*
X39997571Y-44435765D01*
X40020671Y-44444030D01*
X40042849Y-44454520D01*
X40063893Y-44467133D01*
X40083598Y-44481747D01*
X40101777Y-44498223D01*
X40118253Y-44516402D01*
X40132867Y-44536107D01*
X40145480Y-44557151D01*
X40155970Y-44579329D01*
X40164235Y-44602429D01*
X40170196Y-44626227D01*
X40173796Y-44650496D01*
X40175000Y-44675000D01*
X40175000Y-46250000D01*
X40173796Y-46274504D01*
X40170196Y-46298773D01*
X40164235Y-46322571D01*
X40155970Y-46345671D01*
X40145480Y-46367849D01*
X40132867Y-46388893D01*
X40118253Y-46408598D01*
X40101777Y-46426777D01*
X40083598Y-46443253D01*
X40063893Y-46457867D01*
X40042849Y-46470480D01*
X40020671Y-46480970D01*
X39997571Y-46489235D01*
X39973773Y-46495196D01*
X39949504Y-46498796D01*
X39925000Y-46500000D01*
X38075000Y-46500000D01*
X38050496Y-46498796D01*
X38026227Y-46495196D01*
X38002429Y-46489235D01*
X37979329Y-46480970D01*
X37957151Y-46470480D01*
X37936107Y-46457867D01*
X37916402Y-46443253D01*
X37898223Y-46426777D01*
X37881747Y-46408598D01*
X37867133Y-46388893D01*
X37854520Y-46367849D01*
X37844030Y-46345671D01*
X37835765Y-46322571D01*
X37829804Y-46298773D01*
X37826204Y-46274504D01*
X37825000Y-46250000D01*
X37825000Y-44675000D01*
X37826204Y-44650496D01*
X37829804Y-44626227D01*
X37835765Y-44602429D01*
X37844030Y-44579329D01*
X37854520Y-44557151D01*
X37867133Y-44536107D01*
X37881747Y-44516402D01*
X37898223Y-44498223D01*
X37916402Y-44481747D01*
X37936107Y-44467133D01*
X37957151Y-44454520D01*
X37979329Y-44444030D01*
X38002429Y-44435765D01*
X38026227Y-44429804D01*
X38050496Y-44426204D01*
X38075000Y-44425000D01*
X39925000Y-44425000D01*
X39949504Y-44426204D01*
G37*
G04 #@! TD.AperFunction*
G04 #@! TA.AperFunction,SMDPad,CuDef*
G36*
X39949504Y-39501204D02*
G01*
X39973773Y-39504804D01*
X39997571Y-39510765D01*
X40020671Y-39519030D01*
X40042849Y-39529520D01*
X40063893Y-39542133D01*
X40083598Y-39556747D01*
X40101777Y-39573223D01*
X40118253Y-39591402D01*
X40132867Y-39611107D01*
X40145480Y-39632151D01*
X40155970Y-39654329D01*
X40164235Y-39677429D01*
X40170196Y-39701227D01*
X40173796Y-39725496D01*
X40175000Y-39750000D01*
X40175000Y-41325000D01*
X40173796Y-41349504D01*
X40170196Y-41373773D01*
X40164235Y-41397571D01*
X40155970Y-41420671D01*
X40145480Y-41442849D01*
X40132867Y-41463893D01*
X40118253Y-41483598D01*
X40101777Y-41501777D01*
X40083598Y-41518253D01*
X40063893Y-41532867D01*
X40042849Y-41545480D01*
X40020671Y-41555970D01*
X39997571Y-41564235D01*
X39973773Y-41570196D01*
X39949504Y-41573796D01*
X39925000Y-41575000D01*
X38075000Y-41575000D01*
X38050496Y-41573796D01*
X38026227Y-41570196D01*
X38002429Y-41564235D01*
X37979329Y-41555970D01*
X37957151Y-41545480D01*
X37936107Y-41532867D01*
X37916402Y-41518253D01*
X37898223Y-41501777D01*
X37881747Y-41483598D01*
X37867133Y-41463893D01*
X37854520Y-41442849D01*
X37844030Y-41420671D01*
X37835765Y-41397571D01*
X37829804Y-41373773D01*
X37826204Y-41349504D01*
X37825000Y-41325000D01*
X37825000Y-39750000D01*
X37826204Y-39725496D01*
X37829804Y-39701227D01*
X37835765Y-39677429D01*
X37844030Y-39654329D01*
X37854520Y-39632151D01*
X37867133Y-39611107D01*
X37881747Y-39591402D01*
X37898223Y-39573223D01*
X37916402Y-39556747D01*
X37936107Y-39542133D01*
X37957151Y-39529520D01*
X37979329Y-39519030D01*
X38002429Y-39510765D01*
X38026227Y-39504804D01*
X38050496Y-39501204D01*
X38075000Y-39500000D01*
X39925000Y-39500000D01*
X39949504Y-39501204D01*
G37*
G04 #@! TD.AperFunction*
D23*
X127000000Y-57000000D03*
X148000000Y-54000000D03*
X81000000Y-69000000D03*
X102000000Y-44000000D03*
D24*
X55000000Y-60540000D02*
X51000000Y-64540000D01*
X51000000Y-64540000D02*
X49000000Y-64540000D01*
X55000000Y-45080000D02*
X55000000Y-60540000D01*
X39000000Y-56540000D02*
X39000000Y-46500000D01*
X47000000Y-64540000D02*
X39000000Y-56540000D01*
X39000000Y-46500000D02*
X39000000Y-45462500D01*
X49000000Y-64540000D02*
X47000000Y-64540000D01*
X51000000Y-64540000D02*
X51000000Y-72200000D01*
X51000000Y-72200000D02*
X51000000Y-75000000D01*
X46062500Y-40537500D02*
X46600000Y-40000000D01*
X44000000Y-40000000D02*
X46600000Y-40000000D01*
X39537500Y-40000000D02*
X39000000Y-40537500D01*
X44000000Y-40000000D02*
X39537500Y-40000000D01*
X44000000Y-37650000D02*
X44000000Y-40000000D01*
X68000000Y-64000000D02*
X70000000Y-64000000D01*
X64000000Y-60000000D02*
X68000000Y-64000000D01*
X64000000Y-45080000D02*
X64000000Y-60000000D01*
X72000000Y-64000000D02*
X70000000Y-64000000D01*
X81000000Y-55000000D02*
X72000000Y-64000000D01*
X81000000Y-45462500D02*
X81000000Y-55000000D01*
X64000000Y-63000000D02*
X64000000Y-60000000D01*
X55900000Y-71100000D02*
X64000000Y-63000000D01*
X55900000Y-74820000D02*
X56080000Y-75000000D01*
X55900000Y-73100000D02*
X55900000Y-74820000D01*
X55900000Y-73100000D02*
X55900000Y-71100000D01*
X55900000Y-74700000D02*
X55900000Y-73100000D01*
X72937500Y-40537500D02*
X72400000Y-40000000D01*
X75000000Y-40000000D02*
X72400000Y-40000000D01*
X80462500Y-40000000D02*
X81000000Y-40537500D01*
X75000000Y-40000000D02*
X80462500Y-40000000D01*
X75000000Y-37650000D02*
X75000000Y-40000000D01*
D25*
X156000000Y-44398960D02*
X156000000Y-45000000D01*
X157430000Y-40875000D02*
X156000000Y-42305000D01*
X157430000Y-40000000D02*
X157430000Y-40875000D01*
X156000000Y-43000000D02*
X156000000Y-44398960D01*
X156000000Y-42305000D02*
X156000000Y-43000000D01*
D24*
X137000000Y-37975000D02*
X137000000Y-38600000D01*
X139975000Y-35000000D02*
X137000000Y-37975000D01*
X157600000Y-35000000D02*
X139975000Y-35000000D01*
X157600000Y-39830000D02*
X157430000Y-40000000D01*
X157600000Y-35000000D02*
X157600000Y-39830000D01*
X131000000Y-33000000D02*
X131000000Y-38600000D01*
X137000000Y-38600000D02*
X131000000Y-38600000D01*
X49400000Y-40000000D02*
X55000000Y-40000000D01*
X49400000Y-50330000D02*
X49000000Y-50730000D01*
X49400000Y-40000000D02*
X49400000Y-50330000D01*
X64000000Y-40000000D02*
X69600000Y-40000000D01*
X69600000Y-50600000D02*
X70000000Y-51000000D01*
X69600000Y-40000000D02*
X69600000Y-50600000D01*
X148645000Y-52854999D02*
X148645000Y-53355000D01*
X148645000Y-53355000D02*
X148000000Y-54000000D01*
X154575000Y-45000000D02*
X154874999Y-45000000D01*
X148475000Y-52750000D02*
X148475000Y-51100000D01*
X148475000Y-51100000D02*
X154575000Y-45000000D01*
X126200000Y-56200000D02*
X127000000Y-57000000D01*
X125800000Y-56200000D02*
X126200000Y-56200000D01*
X82600000Y-69000000D02*
X81000000Y-69000000D01*
X70000000Y-59507500D02*
X70000000Y-61460000D01*
X75107500Y-54400000D02*
X70000000Y-59507500D01*
X78000000Y-54400000D02*
X75107500Y-54400000D01*
X137000000Y-47659999D02*
X137000000Y-41400000D01*
X137590001Y-48250000D02*
X137000000Y-47659999D01*
X142300000Y-48250000D02*
X137590001Y-48250000D01*
X143000000Y-59000000D02*
X143000000Y-48950000D01*
X143000000Y-48950000D02*
X142300000Y-48250000D01*
X131000000Y-47725000D02*
X131525000Y-48250000D01*
X131000000Y-41400000D02*
X131000000Y-47725000D01*
X131650000Y-48250000D02*
X131525000Y-48250000D01*
X137920000Y-54520000D02*
X137920000Y-59000000D01*
X131650000Y-48250000D02*
X137920000Y-54520000D01*
X49000000Y-62000000D02*
X49000000Y-60000000D01*
X43400000Y-54400000D02*
X42000000Y-54400000D01*
X49000000Y-60000000D02*
X43400000Y-54400000D01*
X93600000Y-52875000D02*
X93600000Y-52000000D01*
X97805000Y-57080000D02*
X93600000Y-52875000D01*
X106000000Y-57080000D02*
X97805000Y-57080000D01*
X44380000Y-32000000D02*
X44000000Y-32380000D01*
X58500000Y-32000000D02*
X44380000Y-32000000D01*
X57000000Y-42540000D02*
X55000000Y-42540000D01*
X58500000Y-41040000D02*
X57000000Y-42540000D01*
X58500000Y-32000000D02*
X58500000Y-41040000D01*
X60000000Y-42540000D02*
X58500000Y-41040000D01*
X64000000Y-42540000D02*
X60000000Y-42540000D01*
X62000000Y-42540000D02*
X64000000Y-42540000D01*
X61000000Y-41540000D02*
X62000000Y-42540000D01*
X68620000Y-32380000D02*
X65000000Y-36000000D01*
X75000000Y-32380000D02*
X68620000Y-32380000D01*
X61000000Y-38000000D02*
X61000000Y-41540000D01*
X65000000Y-36000000D02*
X63000000Y-36000000D01*
X63000000Y-36000000D02*
X61000000Y-38000000D01*
X61000000Y-41540000D02*
X60000000Y-42540000D01*
X75320000Y-32700000D02*
X75000000Y-32380000D01*
X93600000Y-51125000D02*
X93600000Y-52000000D01*
X93600000Y-50600000D02*
X93600000Y-51125000D01*
X104350000Y-44000000D02*
X100200000Y-44000000D01*
X100200000Y-44000000D02*
X93600000Y-50600000D01*
X75200000Y-32700000D02*
X75320000Y-32700000D01*
X75000000Y-32900000D02*
X75200000Y-32700000D01*
X75000000Y-34350000D02*
X75000000Y-32900000D01*
X44000000Y-34350000D02*
X44000000Y-32380000D01*
X75900000Y-32000000D02*
X75200000Y-32700000D01*
X100000000Y-32000000D02*
X75900000Y-32000000D01*
X94060000Y-42540000D02*
X93000000Y-42540000D01*
X109620000Y-44000000D02*
X107650000Y-44000000D01*
X105080000Y-32000000D02*
X109620000Y-36540000D01*
X109620000Y-36540000D02*
X109620000Y-44000000D01*
X95000000Y-42540000D02*
X93000000Y-42540000D01*
X103329941Y-34210059D02*
X95000000Y-42540000D01*
X103329941Y-33750059D02*
X103329941Y-34210059D01*
X105080000Y-32000000D02*
X103329941Y-33750059D01*
X85500000Y-69100000D02*
X85400000Y-69000000D01*
X85500000Y-75300000D02*
X85500000Y-69100000D01*
X85400000Y-45600000D02*
X85400000Y-68125000D01*
X85400000Y-68125000D02*
X85400000Y-69000000D01*
X91000000Y-40000000D02*
X85400000Y-45600000D01*
X93000000Y-40000000D02*
X91000000Y-40000000D01*
X95000000Y-67400000D02*
X95000000Y-75000000D01*
X106460000Y-55000000D02*
X106000000Y-54540000D01*
X118000000Y-55000000D02*
X106460000Y-55000000D01*
X121000000Y-36000000D02*
X118699999Y-33699999D01*
X121000000Y-52672502D02*
X121000000Y-36000000D01*
X118000000Y-55000000D02*
X118672502Y-55000000D01*
X118699999Y-33699999D02*
X118000000Y-33000000D01*
X118672502Y-55000000D02*
X121000000Y-52672502D01*
X96400000Y-52000000D02*
X106000000Y-52000000D01*
X77330000Y-52270000D02*
X78000000Y-51600000D01*
X70000000Y-52270000D02*
X77330000Y-52270000D01*
D25*
X162000000Y-37475000D02*
X162000000Y-44398960D01*
X160400000Y-35875000D02*
X162000000Y-37475000D01*
X162000000Y-44398960D02*
X162000000Y-45000000D01*
X160400000Y-35000000D02*
X160400000Y-35875000D01*
X162000000Y-45000000D02*
X162000000Y-52000000D01*
X161000000Y-44398960D02*
X161000000Y-45000000D01*
X161000000Y-41645000D02*
X161000000Y-44398960D01*
X160230000Y-40875000D02*
X161000000Y-41645000D01*
X160230000Y-40000000D02*
X160230000Y-40875000D01*
X161398960Y-53000000D02*
X162000000Y-53000000D01*
X161000000Y-52601040D02*
X161398960Y-53000000D01*
X161000000Y-45000000D02*
X161000000Y-52601040D01*
X160000000Y-45601040D02*
X160000000Y-45000000D01*
X160000000Y-52601040D02*
X160000000Y-45601040D01*
X161398960Y-54000000D02*
X160000000Y-52601040D01*
X162000000Y-54000000D02*
X161398960Y-54000000D01*
X161398960Y-55000000D02*
X159000000Y-52601040D01*
X159000000Y-45601040D02*
X159000000Y-45000000D01*
X159000000Y-52601040D02*
X159000000Y-45601040D01*
X162000000Y-55000000D02*
X161398960Y-55000000D01*
X158000000Y-45601040D02*
X158000000Y-45000000D01*
X158000000Y-52601040D02*
X158000000Y-45601040D01*
X161398960Y-56000000D02*
X158000000Y-52601040D01*
X162000000Y-56000000D02*
X161398960Y-56000000D01*
X157000000Y-45601040D02*
X157000000Y-45000000D01*
X157000000Y-52925000D02*
X157000000Y-45601040D01*
X161075000Y-57000000D02*
X157000000Y-52925000D01*
X162000000Y-57000000D02*
X161075000Y-57000000D01*
D24*
X42400000Y-52000000D02*
X42000000Y-51600000D01*
X49000000Y-52000000D02*
X42400000Y-52000000D01*
X96205000Y-64270000D02*
X104250000Y-64270000D01*
X95875000Y-64600000D02*
X96205000Y-64270000D01*
X104250000Y-64270000D02*
X106000000Y-64270000D01*
X95000000Y-64600000D02*
X95875000Y-64600000D01*
M02*
