G04 #@! TF.GenerationSoftware,KiCad,Pcbnew,(5.1.5)-3*
G04 #@! TF.CreationDate,2021-03-07T17:40:16+01:00*
G04 #@! TF.ProjectId,Motorproject,4d6f746f-7270-4726-9f6a-6563742e6b69,rev?*
G04 #@! TF.SameCoordinates,Original*
G04 #@! TF.FileFunction,Copper,L2,Bot*
G04 #@! TF.FilePolarity,Positive*
%FSLAX46Y46*%
G04 Gerber Fmt 4.6, Leading zero omitted, Abs format (unit mm)*
G04 Created by KiCad (PCBNEW (5.1.5)-3) date 2021-03-07 17:40:16*
%MOMM*%
%LPD*%
G04 APERTURE LIST*
%ADD10C,3.500120*%
%ADD11R,3.500120X3.500120*%
%ADD12O,0.850000X0.850000*%
%ADD13R,0.850000X0.850000*%
%ADD14O,2.000000X1.905000*%
%ADD15R,2.000000X1.905000*%
%ADD16R,1.500000X1.050000*%
%ADD17O,1.500000X1.050000*%
%ADD18C,0.800000*%
%ADD19C,1.000000*%
%ADD20C,0.254000*%
G04 APERTURE END LIST*
D10*
X124080000Y-32700000D03*
D11*
X119000000Y-32700000D03*
D10*
X100080000Y-75000000D03*
D11*
X95000000Y-75000000D03*
D10*
X80920000Y-75000000D03*
D11*
X86000000Y-75000000D03*
D10*
X105080000Y-32000000D03*
D11*
X100000000Y-32000000D03*
D10*
X137920000Y-59000000D03*
D11*
X143000000Y-59000000D03*
D10*
X56080000Y-75000000D03*
D11*
X51000000Y-75000000D03*
D10*
X67080000Y-75000000D03*
D11*
X62000000Y-75000000D03*
D10*
X62080000Y-32300000D03*
D11*
X57000000Y-32300000D03*
D10*
X136080000Y-33000000D03*
D11*
X131000000Y-33000000D03*
D12*
X162000000Y-52000000D03*
X162000000Y-53000000D03*
X162000000Y-54000000D03*
X162000000Y-55000000D03*
X162000000Y-56000000D03*
D13*
X162000000Y-57000000D03*
D12*
X162000000Y-45000000D03*
X161000000Y-45000000D03*
X160000000Y-45000000D03*
X159000000Y-45000000D03*
X158000000Y-45000000D03*
X157000000Y-45000000D03*
X156000000Y-45000000D03*
D13*
X155000000Y-45000000D03*
D14*
X93000000Y-45080000D03*
X93000000Y-42540000D03*
D15*
X93000000Y-40000000D03*
D14*
X118000000Y-57540000D03*
X118000000Y-55000000D03*
D15*
X118000000Y-52460000D03*
D14*
X106000000Y-57080000D03*
X106000000Y-54540000D03*
D15*
X106000000Y-52000000D03*
D16*
X106000000Y-63000000D03*
D17*
X106000000Y-65540000D03*
X106000000Y-64270000D03*
D16*
X70000000Y-51000000D03*
D17*
X70000000Y-53540000D03*
X70000000Y-52270000D03*
D16*
X49000000Y-50730000D03*
D17*
X49000000Y-53270000D03*
X49000000Y-52000000D03*
D14*
X70000000Y-66540000D03*
X70000000Y-64000000D03*
D15*
X70000000Y-61460000D03*
D14*
X49000000Y-67080000D03*
X49000000Y-64540000D03*
D15*
X49000000Y-62000000D03*
D14*
X64000000Y-45080000D03*
X64000000Y-42540000D03*
D15*
X64000000Y-40000000D03*
D14*
X55000000Y-45080000D03*
X55000000Y-42540000D03*
D15*
X55000000Y-40000000D03*
D18*
X127000000Y-57000000D03*
X148000000Y-54000000D03*
X81000000Y-69000000D03*
X102000000Y-44000000D03*
D19*
X65900000Y-73710051D02*
X65900000Y-74700000D01*
X65900000Y-63560000D02*
X65900000Y-73710051D01*
X68000000Y-61460000D02*
X65900000Y-63560000D01*
X70000000Y-61460000D02*
X68000000Y-61460000D01*
X67000000Y-75000000D02*
X67080000Y-75000000D01*
X63500000Y-74700000D02*
X63500000Y-63500000D01*
X62000000Y-62000000D02*
X49000000Y-62000000D01*
X63500000Y-63500000D02*
X62000000Y-62000000D01*
X63000000Y-75000000D02*
X62000000Y-75000000D01*
X101500000Y-43500000D02*
X102000000Y-44000000D01*
X100000000Y-42000000D02*
X101500000Y-43500000D01*
X100000000Y-32000000D02*
X100000000Y-42000000D01*
X106460000Y-52460000D02*
X106000000Y-52000000D01*
X118000000Y-52460000D02*
X106460000Y-52460000D01*
X116000000Y-52460000D02*
X118000000Y-52460000D01*
X106000000Y-61475000D02*
X115015000Y-52460000D01*
X115015000Y-52460000D02*
X116000000Y-52460000D01*
X106000000Y-63000000D02*
X106000000Y-61475000D01*
D20*
G36*
X151873000Y-41052606D02*
G01*
X151873000Y-58947394D01*
X146947394Y-63873000D01*
X117000000Y-63873000D01*
X116975224Y-63875440D01*
X116951399Y-63882667D01*
X116929443Y-63894403D01*
X116910197Y-63910197D01*
X102947394Y-77873000D01*
X47052606Y-77873000D01*
X42429546Y-73249940D01*
X48611868Y-73249940D01*
X48611868Y-76750060D01*
X48624128Y-76874542D01*
X48660438Y-76994240D01*
X48719403Y-77104554D01*
X48798755Y-77201245D01*
X48895446Y-77280597D01*
X49005760Y-77339562D01*
X49125458Y-77375872D01*
X49249940Y-77388132D01*
X52750060Y-77388132D01*
X52874542Y-77375872D01*
X52994240Y-77339562D01*
X53104554Y-77280597D01*
X53201245Y-77201245D01*
X53280597Y-77104554D01*
X53339562Y-76994240D01*
X53375872Y-76874542D01*
X53388132Y-76750060D01*
X53388132Y-74765092D01*
X53694940Y-74765092D01*
X53694940Y-75234908D01*
X53786597Y-75695696D01*
X53966387Y-76129749D01*
X54227403Y-76520387D01*
X54559613Y-76852597D01*
X54950251Y-77113613D01*
X55384304Y-77293403D01*
X55845092Y-77385060D01*
X56314908Y-77385060D01*
X56775696Y-77293403D01*
X57209749Y-77113613D01*
X57600387Y-76852597D01*
X57932597Y-76520387D01*
X58193613Y-76129749D01*
X58373403Y-75695696D01*
X58465060Y-75234908D01*
X58465060Y-74765092D01*
X58373403Y-74304304D01*
X58193613Y-73870251D01*
X57932597Y-73479613D01*
X57600387Y-73147403D01*
X57209749Y-72886387D01*
X56775696Y-72706597D01*
X56314908Y-72614940D01*
X55845092Y-72614940D01*
X55384304Y-72706597D01*
X54950251Y-72886387D01*
X54559613Y-73147403D01*
X54227403Y-73479613D01*
X53966387Y-73870251D01*
X53786597Y-74304304D01*
X53694940Y-74765092D01*
X53388132Y-74765092D01*
X53388132Y-73249940D01*
X53375872Y-73125458D01*
X53339562Y-73005760D01*
X53280597Y-72895446D01*
X53201245Y-72798755D01*
X53104554Y-72719403D01*
X52994240Y-72660438D01*
X52874542Y-72624128D01*
X52750060Y-72611868D01*
X49249940Y-72611868D01*
X49125458Y-72624128D01*
X49005760Y-72660438D01*
X48895446Y-72719403D01*
X48798755Y-72798755D01*
X48719403Y-72895446D01*
X48660438Y-73005760D01*
X48624128Y-73125458D01*
X48611868Y-73249940D01*
X42429546Y-73249940D01*
X41127000Y-71947394D01*
X41127000Y-67452980D01*
X47409437Y-67452980D01*
X47480429Y-67671094D01*
X47624031Y-67946923D01*
X47818685Y-68189437D01*
X48056911Y-68389316D01*
X48329554Y-68538879D01*
X48626137Y-68632378D01*
X48873000Y-68505570D01*
X48873000Y-67207000D01*
X49127000Y-67207000D01*
X49127000Y-68505570D01*
X49373863Y-68632378D01*
X49670446Y-68538879D01*
X49943089Y-68389316D01*
X50181315Y-68189437D01*
X50375969Y-67946923D01*
X50519571Y-67671094D01*
X50590563Y-67452980D01*
X50470594Y-67207000D01*
X49127000Y-67207000D01*
X48873000Y-67207000D01*
X47529406Y-67207000D01*
X47409437Y-67452980D01*
X41127000Y-67452980D01*
X41127000Y-64540000D01*
X47357319Y-64540000D01*
X47387970Y-64851204D01*
X47478745Y-65150449D01*
X47626155Y-65426235D01*
X47824537Y-65667963D01*
X48003899Y-65815163D01*
X47818685Y-65970563D01*
X47624031Y-66213077D01*
X47480429Y-66488906D01*
X47409437Y-66707020D01*
X47529406Y-66953000D01*
X48873000Y-66953000D01*
X48873000Y-66933000D01*
X49127000Y-66933000D01*
X49127000Y-66953000D01*
X50470594Y-66953000D01*
X50590563Y-66707020D01*
X50519571Y-66488906D01*
X50375969Y-66213077D01*
X50181315Y-65970563D01*
X49996101Y-65815163D01*
X50175463Y-65667963D01*
X50373845Y-65426235D01*
X50521255Y-65150449D01*
X50612030Y-64851204D01*
X50642681Y-64540000D01*
X50612030Y-64228796D01*
X50521255Y-63929551D01*
X50373845Y-63653765D01*
X50270554Y-63527905D01*
X50354494Y-63483037D01*
X50451185Y-63403685D01*
X50530537Y-63306994D01*
X50589502Y-63196680D01*
X50608212Y-63135000D01*
X61529869Y-63135000D01*
X62365001Y-63970133D01*
X62365000Y-72611868D01*
X60249940Y-72611868D01*
X60125458Y-72624128D01*
X60005760Y-72660438D01*
X59895446Y-72719403D01*
X59798755Y-72798755D01*
X59719403Y-72895446D01*
X59660438Y-73005760D01*
X59624128Y-73125458D01*
X59611868Y-73249940D01*
X59611868Y-76750060D01*
X59624128Y-76874542D01*
X59660438Y-76994240D01*
X59719403Y-77104554D01*
X59798755Y-77201245D01*
X59895446Y-77280597D01*
X60005760Y-77339562D01*
X60125458Y-77375872D01*
X60249940Y-77388132D01*
X63750060Y-77388132D01*
X63874542Y-77375872D01*
X63994240Y-77339562D01*
X64104554Y-77280597D01*
X64201245Y-77201245D01*
X64280597Y-77104554D01*
X64339562Y-76994240D01*
X64375872Y-76874542D01*
X64388132Y-76750060D01*
X64388132Y-75406918D01*
X64448284Y-75333623D01*
X64553676Y-75136447D01*
X64618577Y-74922499D01*
X64634080Y-74765092D01*
X64694940Y-74765092D01*
X64694940Y-75234908D01*
X64786597Y-75695696D01*
X64966387Y-76129749D01*
X65227403Y-76520387D01*
X65559613Y-76852597D01*
X65950251Y-77113613D01*
X66384304Y-77293403D01*
X66845092Y-77385060D01*
X67314908Y-77385060D01*
X67775696Y-77293403D01*
X68209749Y-77113613D01*
X68600387Y-76852597D01*
X68783333Y-76669651D01*
X79429954Y-76669651D01*
X79616039Y-77010815D01*
X80033384Y-77226568D01*
X80484802Y-77356755D01*
X80952944Y-77396374D01*
X81419821Y-77343901D01*
X81867489Y-77201354D01*
X82223961Y-77010815D01*
X82410046Y-76669651D01*
X80920000Y-75179605D01*
X79429954Y-76669651D01*
X68783333Y-76669651D01*
X68932597Y-76520387D01*
X69193613Y-76129749D01*
X69373403Y-75695696D01*
X69465060Y-75234908D01*
X69465060Y-75032944D01*
X78523626Y-75032944D01*
X78576099Y-75499821D01*
X78718646Y-75947489D01*
X78909185Y-76303961D01*
X79250349Y-76490046D01*
X80740395Y-75000000D01*
X81099605Y-75000000D01*
X82589651Y-76490046D01*
X82930815Y-76303961D01*
X83146568Y-75886616D01*
X83276755Y-75435198D01*
X83316374Y-74967056D01*
X83263901Y-74500179D01*
X83121354Y-74052511D01*
X82930815Y-73696039D01*
X82589651Y-73509954D01*
X81099605Y-75000000D01*
X80740395Y-75000000D01*
X79250349Y-73509954D01*
X78909185Y-73696039D01*
X78693432Y-74113384D01*
X78563245Y-74564802D01*
X78523626Y-75032944D01*
X69465060Y-75032944D01*
X69465060Y-74765092D01*
X69373403Y-74304304D01*
X69193613Y-73870251D01*
X68932597Y-73479613D01*
X68783333Y-73330349D01*
X79429954Y-73330349D01*
X80920000Y-74820395D01*
X82410046Y-73330349D01*
X82366188Y-73249940D01*
X83611868Y-73249940D01*
X83611868Y-76750060D01*
X83624128Y-76874542D01*
X83660438Y-76994240D01*
X83719403Y-77104554D01*
X83798755Y-77201245D01*
X83895446Y-77280597D01*
X84005760Y-77339562D01*
X84125458Y-77375872D01*
X84249940Y-77388132D01*
X87750060Y-77388132D01*
X87874542Y-77375872D01*
X87994240Y-77339562D01*
X88104554Y-77280597D01*
X88201245Y-77201245D01*
X88280597Y-77104554D01*
X88339562Y-76994240D01*
X88375872Y-76874542D01*
X88388132Y-76750060D01*
X88388132Y-73249940D01*
X92611868Y-73249940D01*
X92611868Y-76750060D01*
X92624128Y-76874542D01*
X92660438Y-76994240D01*
X92719403Y-77104554D01*
X92798755Y-77201245D01*
X92895446Y-77280597D01*
X93005760Y-77339562D01*
X93125458Y-77375872D01*
X93249940Y-77388132D01*
X96750060Y-77388132D01*
X96874542Y-77375872D01*
X96994240Y-77339562D01*
X97104554Y-77280597D01*
X97201245Y-77201245D01*
X97280597Y-77104554D01*
X97339562Y-76994240D01*
X97375872Y-76874542D01*
X97388132Y-76750060D01*
X97388132Y-76669651D01*
X98589954Y-76669651D01*
X98776039Y-77010815D01*
X99193384Y-77226568D01*
X99644802Y-77356755D01*
X100112944Y-77396374D01*
X100579821Y-77343901D01*
X101027489Y-77201354D01*
X101383961Y-77010815D01*
X101570046Y-76669651D01*
X100080000Y-75179605D01*
X98589954Y-76669651D01*
X97388132Y-76669651D01*
X97388132Y-75032944D01*
X97683626Y-75032944D01*
X97736099Y-75499821D01*
X97878646Y-75947489D01*
X98069185Y-76303961D01*
X98410349Y-76490046D01*
X99900395Y-75000000D01*
X100259605Y-75000000D01*
X101749651Y-76490046D01*
X102090815Y-76303961D01*
X102306568Y-75886616D01*
X102436755Y-75435198D01*
X102476374Y-74967056D01*
X102423901Y-74500179D01*
X102281354Y-74052511D01*
X102090815Y-73696039D01*
X101749651Y-73509954D01*
X100259605Y-75000000D01*
X99900395Y-75000000D01*
X98410349Y-73509954D01*
X98069185Y-73696039D01*
X97853432Y-74113384D01*
X97723245Y-74564802D01*
X97683626Y-75032944D01*
X97388132Y-75032944D01*
X97388132Y-73330349D01*
X98589954Y-73330349D01*
X100080000Y-74820395D01*
X101570046Y-73330349D01*
X101383961Y-72989185D01*
X100966616Y-72773432D01*
X100515198Y-72643245D01*
X100047056Y-72603626D01*
X99580179Y-72656099D01*
X99132511Y-72798646D01*
X98776039Y-72989185D01*
X98589954Y-73330349D01*
X97388132Y-73330349D01*
X97388132Y-73249940D01*
X97375872Y-73125458D01*
X97339562Y-73005760D01*
X97280597Y-72895446D01*
X97201245Y-72798755D01*
X97104554Y-72719403D01*
X96994240Y-72660438D01*
X96874542Y-72624128D01*
X96750060Y-72611868D01*
X93249940Y-72611868D01*
X93125458Y-72624128D01*
X93005760Y-72660438D01*
X92895446Y-72719403D01*
X92798755Y-72798755D01*
X92719403Y-72895446D01*
X92660438Y-73005760D01*
X92624128Y-73125458D01*
X92611868Y-73249940D01*
X88388132Y-73249940D01*
X88375872Y-73125458D01*
X88339562Y-73005760D01*
X88280597Y-72895446D01*
X88201245Y-72798755D01*
X88104554Y-72719403D01*
X87994240Y-72660438D01*
X87874542Y-72624128D01*
X87750060Y-72611868D01*
X84249940Y-72611868D01*
X84125458Y-72624128D01*
X84005760Y-72660438D01*
X83895446Y-72719403D01*
X83798755Y-72798755D01*
X83719403Y-72895446D01*
X83660438Y-73005760D01*
X83624128Y-73125458D01*
X83611868Y-73249940D01*
X82366188Y-73249940D01*
X82223961Y-72989185D01*
X81806616Y-72773432D01*
X81355198Y-72643245D01*
X80887056Y-72603626D01*
X80420179Y-72656099D01*
X79972511Y-72798646D01*
X79616039Y-72989185D01*
X79429954Y-73330349D01*
X68783333Y-73330349D01*
X68600387Y-73147403D01*
X68209749Y-72886387D01*
X67775696Y-72706597D01*
X67314908Y-72614940D01*
X67035000Y-72614940D01*
X67035000Y-66912980D01*
X68409437Y-66912980D01*
X68480429Y-67131094D01*
X68624031Y-67406923D01*
X68818685Y-67649437D01*
X69056911Y-67849316D01*
X69329554Y-67998879D01*
X69626137Y-68092378D01*
X69873000Y-67965570D01*
X69873000Y-66667000D01*
X70127000Y-66667000D01*
X70127000Y-67965570D01*
X70373863Y-68092378D01*
X70670446Y-67998879D01*
X70943089Y-67849316D01*
X71181315Y-67649437D01*
X71375969Y-67406923D01*
X71519571Y-67131094D01*
X71590563Y-66912980D01*
X71470594Y-66667000D01*
X70127000Y-66667000D01*
X69873000Y-66667000D01*
X68529406Y-66667000D01*
X68409437Y-66912980D01*
X67035000Y-66912980D01*
X67035000Y-64030131D01*
X68410022Y-62655110D01*
X68410498Y-62656680D01*
X68469463Y-62766994D01*
X68548815Y-62863685D01*
X68645506Y-62943037D01*
X68729446Y-62987905D01*
X68626155Y-63113765D01*
X68478745Y-63389551D01*
X68387970Y-63688796D01*
X68357319Y-64000000D01*
X68387970Y-64311204D01*
X68478745Y-64610449D01*
X68626155Y-64886235D01*
X68824537Y-65127963D01*
X69003899Y-65275163D01*
X68818685Y-65430563D01*
X68624031Y-65673077D01*
X68480429Y-65948906D01*
X68409437Y-66167020D01*
X68529406Y-66413000D01*
X69873000Y-66413000D01*
X69873000Y-66393000D01*
X70127000Y-66393000D01*
X70127000Y-66413000D01*
X71470594Y-66413000D01*
X71590563Y-66167020D01*
X71519571Y-65948906D01*
X71465898Y-65845810D01*
X104656036Y-65845810D01*
X104664728Y-65907337D01*
X104757725Y-66116882D01*
X104889816Y-66304258D01*
X105055924Y-66462264D01*
X105249666Y-66584828D01*
X105463596Y-66667239D01*
X105689493Y-66706331D01*
X105873000Y-66546598D01*
X105873000Y-65667000D01*
X106127000Y-65667000D01*
X106127000Y-66546598D01*
X106310507Y-66706331D01*
X106536404Y-66667239D01*
X106750334Y-66584828D01*
X106944076Y-66462264D01*
X107110184Y-66304258D01*
X107242275Y-66116882D01*
X107335272Y-65907337D01*
X107343964Y-65845810D01*
X107218163Y-65667000D01*
X106127000Y-65667000D01*
X105873000Y-65667000D01*
X104781837Y-65667000D01*
X104656036Y-65845810D01*
X71465898Y-65845810D01*
X71375969Y-65673077D01*
X71181315Y-65430563D01*
X70996101Y-65275163D01*
X71175463Y-65127963D01*
X71373845Y-64886235D01*
X71521255Y-64610449D01*
X71612030Y-64311204D01*
X71642681Y-64000000D01*
X71612030Y-63688796D01*
X71521255Y-63389551D01*
X71373845Y-63113765D01*
X71270554Y-62987905D01*
X71354494Y-62943037D01*
X71451185Y-62863685D01*
X71530537Y-62766994D01*
X71589502Y-62656680D01*
X71625812Y-62536982D01*
X71638072Y-62412500D01*
X71638072Y-60507500D01*
X71625812Y-60383018D01*
X71589502Y-60263320D01*
X71530537Y-60153006D01*
X71451185Y-60056315D01*
X71354494Y-59976963D01*
X71244180Y-59917998D01*
X71124482Y-59881688D01*
X71000000Y-59869428D01*
X69000000Y-59869428D01*
X68875518Y-59881688D01*
X68755820Y-59917998D01*
X68645506Y-59976963D01*
X68548815Y-60056315D01*
X68469463Y-60153006D01*
X68410498Y-60263320D01*
X68391788Y-60325000D01*
X68055741Y-60325000D01*
X67999999Y-60319510D01*
X67944257Y-60325000D01*
X67944248Y-60325000D01*
X67777501Y-60341423D01*
X67563553Y-60406324D01*
X67366377Y-60511716D01*
X67193551Y-60653551D01*
X67158009Y-60696859D01*
X65136865Y-62718004D01*
X65093551Y-62753551D01*
X64951716Y-62926377D01*
X64878395Y-63063553D01*
X64846324Y-63123554D01*
X64781423Y-63337502D01*
X64759509Y-63560000D01*
X64765000Y-63615752D01*
X64765001Y-73654290D01*
X64765000Y-73654300D01*
X64765000Y-74412879D01*
X64694940Y-74765092D01*
X64634080Y-74765092D01*
X64635000Y-74755752D01*
X64635000Y-63555741D01*
X64640490Y-63499999D01*
X64635000Y-63444257D01*
X64635000Y-63444248D01*
X64618577Y-63277501D01*
X64553676Y-63063553D01*
X64448284Y-62866377D01*
X64306449Y-62693551D01*
X64263140Y-62658008D01*
X62841996Y-61236865D01*
X62806449Y-61193551D01*
X62633623Y-61051716D01*
X62436447Y-60946324D01*
X62222499Y-60881423D01*
X62055752Y-60865000D01*
X62055751Y-60865000D01*
X62000000Y-60859509D01*
X61944249Y-60865000D01*
X50608212Y-60865000D01*
X50589502Y-60803320D01*
X50530537Y-60693006D01*
X50451185Y-60596315D01*
X50354494Y-60516963D01*
X50244180Y-60457998D01*
X50124482Y-60421688D01*
X50000000Y-60409428D01*
X48000000Y-60409428D01*
X47875518Y-60421688D01*
X47755820Y-60457998D01*
X47645506Y-60516963D01*
X47548815Y-60596315D01*
X47469463Y-60693006D01*
X47410498Y-60803320D01*
X47374188Y-60923018D01*
X47361928Y-61047500D01*
X47361928Y-62952500D01*
X47374188Y-63076982D01*
X47410498Y-63196680D01*
X47469463Y-63306994D01*
X47548815Y-63403685D01*
X47645506Y-63483037D01*
X47729446Y-63527905D01*
X47626155Y-63653765D01*
X47478745Y-63929551D01*
X47387970Y-64228796D01*
X47357319Y-64540000D01*
X41127000Y-64540000D01*
X41127000Y-53575810D01*
X47656036Y-53575810D01*
X47664728Y-53637337D01*
X47757725Y-53846882D01*
X47889816Y-54034258D01*
X48055924Y-54192264D01*
X48249666Y-54314828D01*
X48463596Y-54397239D01*
X48689493Y-54436331D01*
X48873000Y-54276598D01*
X48873000Y-53397000D01*
X49127000Y-53397000D01*
X49127000Y-54276598D01*
X49310507Y-54436331D01*
X49536404Y-54397239D01*
X49750334Y-54314828D01*
X49944076Y-54192264D01*
X50110184Y-54034258D01*
X50242275Y-53846882D01*
X50242750Y-53845810D01*
X68656036Y-53845810D01*
X68664728Y-53907337D01*
X68757725Y-54116882D01*
X68889816Y-54304258D01*
X69055924Y-54462264D01*
X69249666Y-54584828D01*
X69463596Y-54667239D01*
X69689493Y-54706331D01*
X69873000Y-54546598D01*
X69873000Y-53667000D01*
X70127000Y-53667000D01*
X70127000Y-54546598D01*
X70310507Y-54706331D01*
X70536404Y-54667239D01*
X70750334Y-54584828D01*
X70821195Y-54540000D01*
X104357319Y-54540000D01*
X104387970Y-54851204D01*
X104478745Y-55150449D01*
X104626155Y-55426235D01*
X104824537Y-55667963D01*
X104997609Y-55810000D01*
X104824537Y-55952037D01*
X104626155Y-56193765D01*
X104478745Y-56469551D01*
X104387970Y-56768796D01*
X104357319Y-57080000D01*
X104387970Y-57391204D01*
X104478745Y-57690449D01*
X104626155Y-57966235D01*
X104824537Y-58207963D01*
X105066265Y-58406345D01*
X105342051Y-58553755D01*
X105641296Y-58644530D01*
X105874514Y-58667500D01*
X106125486Y-58667500D01*
X106358704Y-58644530D01*
X106657949Y-58553755D01*
X106933735Y-58406345D01*
X107175463Y-58207963D01*
X107373845Y-57966235D01*
X107521255Y-57690449D01*
X107612030Y-57391204D01*
X107642681Y-57080000D01*
X107612030Y-56768796D01*
X107521255Y-56469551D01*
X107373845Y-56193765D01*
X107175463Y-55952037D01*
X107002391Y-55810000D01*
X107175463Y-55667963D01*
X107373845Y-55426235D01*
X107521255Y-55150449D01*
X107612030Y-54851204D01*
X107642681Y-54540000D01*
X107612030Y-54228796D01*
X107521255Y-53929551D01*
X107373845Y-53653765D01*
X107325618Y-53595000D01*
X112274868Y-53595000D01*
X105236860Y-60633009D01*
X105193552Y-60668551D01*
X105051717Y-60841377D01*
X105033990Y-60874542D01*
X104946324Y-61038554D01*
X104901111Y-61187600D01*
X104885974Y-61237501D01*
X104881423Y-61252502D01*
X104859509Y-61475000D01*
X104865000Y-61530751D01*
X104865000Y-61969499D01*
X104798815Y-62023815D01*
X104719463Y-62120506D01*
X104660498Y-62230820D01*
X104624188Y-62350518D01*
X104611928Y-62475000D01*
X104611928Y-63525000D01*
X104624188Y-63649482D01*
X104660498Y-63769180D01*
X104695093Y-63833902D01*
X104631785Y-64042600D01*
X104609388Y-64270000D01*
X104631785Y-64497400D01*
X104698115Y-64716060D01*
X104798929Y-64904669D01*
X104757725Y-64963118D01*
X104664728Y-65172663D01*
X104656036Y-65234190D01*
X104781837Y-65413000D01*
X105546891Y-65413000D01*
X105547600Y-65413215D01*
X105718021Y-65430000D01*
X106281979Y-65430000D01*
X106452400Y-65413215D01*
X106453109Y-65413000D01*
X107218163Y-65413000D01*
X107343964Y-65234190D01*
X107335272Y-65172663D01*
X107242275Y-64963118D01*
X107201071Y-64904669D01*
X107301885Y-64716060D01*
X107368215Y-64497400D01*
X107390612Y-64270000D01*
X107368215Y-64042600D01*
X107304907Y-63833902D01*
X107339502Y-63769180D01*
X107375812Y-63649482D01*
X107388072Y-63525000D01*
X107388072Y-62475000D01*
X107375812Y-62350518D01*
X107339502Y-62230820D01*
X107280537Y-62120506D01*
X107201185Y-62023815D01*
X107135000Y-61969499D01*
X107135000Y-61945131D01*
X111167151Y-57912980D01*
X116409437Y-57912980D01*
X116480429Y-58131094D01*
X116624031Y-58406923D01*
X116818685Y-58649437D01*
X117056911Y-58849316D01*
X117329554Y-58998879D01*
X117626137Y-59092378D01*
X117873000Y-58965570D01*
X117873000Y-57667000D01*
X118127000Y-57667000D01*
X118127000Y-58965570D01*
X118373863Y-59092378D01*
X118670446Y-58998879D01*
X118943089Y-58849316D01*
X119043471Y-58765092D01*
X135534940Y-58765092D01*
X135534940Y-59234908D01*
X135626597Y-59695696D01*
X135806387Y-60129749D01*
X136067403Y-60520387D01*
X136399613Y-60852597D01*
X136790251Y-61113613D01*
X137224304Y-61293403D01*
X137685092Y-61385060D01*
X138154908Y-61385060D01*
X138615696Y-61293403D01*
X139049749Y-61113613D01*
X139440387Y-60852597D01*
X139772597Y-60520387D01*
X140033613Y-60129749D01*
X140213403Y-59695696D01*
X140305060Y-59234908D01*
X140305060Y-58765092D01*
X140213403Y-58304304D01*
X140033613Y-57870251D01*
X139772597Y-57479613D01*
X139542924Y-57249940D01*
X140611868Y-57249940D01*
X140611868Y-60750060D01*
X140624128Y-60874542D01*
X140660438Y-60994240D01*
X140719403Y-61104554D01*
X140798755Y-61201245D01*
X140895446Y-61280597D01*
X141005760Y-61339562D01*
X141125458Y-61375872D01*
X141249940Y-61388132D01*
X144750060Y-61388132D01*
X144874542Y-61375872D01*
X144994240Y-61339562D01*
X145104554Y-61280597D01*
X145201245Y-61201245D01*
X145280597Y-61104554D01*
X145339562Y-60994240D01*
X145375872Y-60874542D01*
X145388132Y-60750060D01*
X145388132Y-57249940D01*
X145375872Y-57125458D01*
X145339562Y-57005760D01*
X145280597Y-56895446D01*
X145201245Y-56798755D01*
X145104554Y-56719403D01*
X144994240Y-56660438D01*
X144874542Y-56624128D01*
X144750060Y-56611868D01*
X141249940Y-56611868D01*
X141125458Y-56624128D01*
X141005760Y-56660438D01*
X140895446Y-56719403D01*
X140798755Y-56798755D01*
X140719403Y-56895446D01*
X140660438Y-57005760D01*
X140624128Y-57125458D01*
X140611868Y-57249940D01*
X139542924Y-57249940D01*
X139440387Y-57147403D01*
X139049749Y-56886387D01*
X138615696Y-56706597D01*
X138154908Y-56614940D01*
X137685092Y-56614940D01*
X137224304Y-56706597D01*
X136790251Y-56886387D01*
X136399613Y-57147403D01*
X136067403Y-57479613D01*
X135806387Y-57870251D01*
X135626597Y-58304304D01*
X135534940Y-58765092D01*
X119043471Y-58765092D01*
X119181315Y-58649437D01*
X119375969Y-58406923D01*
X119519571Y-58131094D01*
X119590563Y-57912980D01*
X119470594Y-57667000D01*
X118127000Y-57667000D01*
X117873000Y-57667000D01*
X116529406Y-57667000D01*
X116409437Y-57912980D01*
X111167151Y-57912980D01*
X115485132Y-53595000D01*
X116391788Y-53595000D01*
X116410498Y-53656680D01*
X116469463Y-53766994D01*
X116548815Y-53863685D01*
X116645506Y-53943037D01*
X116729446Y-53987905D01*
X116626155Y-54113765D01*
X116478745Y-54389551D01*
X116387970Y-54688796D01*
X116357319Y-55000000D01*
X116387970Y-55311204D01*
X116478745Y-55610449D01*
X116626155Y-55886235D01*
X116824537Y-56127963D01*
X117003899Y-56275163D01*
X116818685Y-56430563D01*
X116624031Y-56673077D01*
X116480429Y-56948906D01*
X116409437Y-57167020D01*
X116529406Y-57413000D01*
X117873000Y-57413000D01*
X117873000Y-57393000D01*
X118127000Y-57393000D01*
X118127000Y-57413000D01*
X119470594Y-57413000D01*
X119590563Y-57167020D01*
X119519571Y-56948906D01*
X119375969Y-56673077D01*
X119181315Y-56430563D01*
X118996101Y-56275163D01*
X119175463Y-56127963D01*
X119373845Y-55886235D01*
X119521255Y-55610449D01*
X119612030Y-55311204D01*
X119642681Y-55000000D01*
X119612030Y-54688796D01*
X119521255Y-54389551D01*
X119373845Y-54113765D01*
X119270554Y-53987905D01*
X119354494Y-53943037D01*
X119451185Y-53863685D01*
X119530537Y-53766994D01*
X119589502Y-53656680D01*
X119625812Y-53536982D01*
X119638072Y-53412500D01*
X119638072Y-51507500D01*
X119625812Y-51383018D01*
X119589502Y-51263320D01*
X119530537Y-51153006D01*
X119451185Y-51056315D01*
X119354494Y-50976963D01*
X119244180Y-50917998D01*
X119124482Y-50881688D01*
X119000000Y-50869428D01*
X117000000Y-50869428D01*
X116875518Y-50881688D01*
X116755820Y-50917998D01*
X116645506Y-50976963D01*
X116548815Y-51056315D01*
X116469463Y-51153006D01*
X116410498Y-51263320D01*
X116391788Y-51325000D01*
X115070741Y-51325000D01*
X115014999Y-51319510D01*
X114959257Y-51325000D01*
X107638072Y-51325000D01*
X107638072Y-51047500D01*
X107625812Y-50923018D01*
X107589502Y-50803320D01*
X107530537Y-50693006D01*
X107451185Y-50596315D01*
X107354494Y-50516963D01*
X107244180Y-50457998D01*
X107124482Y-50421688D01*
X107000000Y-50409428D01*
X105000000Y-50409428D01*
X104875518Y-50421688D01*
X104755820Y-50457998D01*
X104645506Y-50516963D01*
X104548815Y-50596315D01*
X104469463Y-50693006D01*
X104410498Y-50803320D01*
X104374188Y-50923018D01*
X104361928Y-51047500D01*
X104361928Y-52952500D01*
X104374188Y-53076982D01*
X104410498Y-53196680D01*
X104469463Y-53306994D01*
X104548815Y-53403685D01*
X104645506Y-53483037D01*
X104729446Y-53527905D01*
X104626155Y-53653765D01*
X104478745Y-53929551D01*
X104387970Y-54228796D01*
X104357319Y-54540000D01*
X70821195Y-54540000D01*
X70944076Y-54462264D01*
X71110184Y-54304258D01*
X71242275Y-54116882D01*
X71335272Y-53907337D01*
X71343964Y-53845810D01*
X71218163Y-53667000D01*
X70127000Y-53667000D01*
X69873000Y-53667000D01*
X68781837Y-53667000D01*
X68656036Y-53845810D01*
X50242750Y-53845810D01*
X50335272Y-53637337D01*
X50343964Y-53575810D01*
X50218163Y-53397000D01*
X49127000Y-53397000D01*
X48873000Y-53397000D01*
X47781837Y-53397000D01*
X47656036Y-53575810D01*
X41127000Y-53575810D01*
X41127000Y-52000000D01*
X47609388Y-52000000D01*
X47631785Y-52227400D01*
X47698115Y-52446060D01*
X47798929Y-52634669D01*
X47757725Y-52693118D01*
X47664728Y-52902663D01*
X47656036Y-52964190D01*
X47781837Y-53143000D01*
X48546891Y-53143000D01*
X48547600Y-53143215D01*
X48718021Y-53160000D01*
X49281979Y-53160000D01*
X49452400Y-53143215D01*
X49453109Y-53143000D01*
X50218163Y-53143000D01*
X50343964Y-52964190D01*
X50335272Y-52902663D01*
X50242275Y-52693118D01*
X50201071Y-52634669D01*
X50301885Y-52446060D01*
X50355292Y-52270000D01*
X68609388Y-52270000D01*
X68631785Y-52497400D01*
X68698115Y-52716060D01*
X68798929Y-52904669D01*
X68757725Y-52963118D01*
X68664728Y-53172663D01*
X68656036Y-53234190D01*
X68781837Y-53413000D01*
X69546891Y-53413000D01*
X69547600Y-53413215D01*
X69718021Y-53430000D01*
X70281979Y-53430000D01*
X70452400Y-53413215D01*
X70453109Y-53413000D01*
X71218163Y-53413000D01*
X71343964Y-53234190D01*
X71335272Y-53172663D01*
X71242275Y-52963118D01*
X71201071Y-52904669D01*
X71301885Y-52716060D01*
X71368215Y-52497400D01*
X71390612Y-52270000D01*
X71368215Y-52042600D01*
X71304907Y-51833902D01*
X71339502Y-51769180D01*
X71375812Y-51649482D01*
X71388072Y-51525000D01*
X71388072Y-50475000D01*
X71375812Y-50350518D01*
X71339502Y-50230820D01*
X71280537Y-50120506D01*
X71201185Y-50023815D01*
X71104494Y-49944463D01*
X70994180Y-49885498D01*
X70874482Y-49849188D01*
X70750000Y-49836928D01*
X69250000Y-49836928D01*
X69125518Y-49849188D01*
X69005820Y-49885498D01*
X68895506Y-49944463D01*
X68798815Y-50023815D01*
X68719463Y-50120506D01*
X68660498Y-50230820D01*
X68624188Y-50350518D01*
X68611928Y-50475000D01*
X68611928Y-51525000D01*
X68624188Y-51649482D01*
X68660498Y-51769180D01*
X68695093Y-51833902D01*
X68631785Y-52042600D01*
X68609388Y-52270000D01*
X50355292Y-52270000D01*
X50368215Y-52227400D01*
X50390612Y-52000000D01*
X50368215Y-51772600D01*
X50304907Y-51563902D01*
X50339502Y-51499180D01*
X50375812Y-51379482D01*
X50388072Y-51255000D01*
X50388072Y-50205000D01*
X50375812Y-50080518D01*
X50339502Y-49960820D01*
X50280537Y-49850506D01*
X50201185Y-49753815D01*
X50104494Y-49674463D01*
X49994180Y-49615498D01*
X49874482Y-49579188D01*
X49750000Y-49566928D01*
X48250000Y-49566928D01*
X48125518Y-49579188D01*
X48005820Y-49615498D01*
X47895506Y-49674463D01*
X47798815Y-49753815D01*
X47719463Y-49850506D01*
X47660498Y-49960820D01*
X47624188Y-50080518D01*
X47611928Y-50205000D01*
X47611928Y-51255000D01*
X47624188Y-51379482D01*
X47660498Y-51499180D01*
X47695093Y-51563902D01*
X47631785Y-51772600D01*
X47609388Y-52000000D01*
X41127000Y-52000000D01*
X41127000Y-42540000D01*
X53357319Y-42540000D01*
X53387970Y-42851204D01*
X53478745Y-43150449D01*
X53626155Y-43426235D01*
X53824537Y-43667963D01*
X53997609Y-43810000D01*
X53824537Y-43952037D01*
X53626155Y-44193765D01*
X53478745Y-44469551D01*
X53387970Y-44768796D01*
X53357319Y-45080000D01*
X53387970Y-45391204D01*
X53478745Y-45690449D01*
X53626155Y-45966235D01*
X53824537Y-46207963D01*
X54066265Y-46406345D01*
X54342051Y-46553755D01*
X54641296Y-46644530D01*
X54874514Y-46667500D01*
X55125486Y-46667500D01*
X55358704Y-46644530D01*
X55657949Y-46553755D01*
X55933735Y-46406345D01*
X56175463Y-46207963D01*
X56373845Y-45966235D01*
X56521255Y-45690449D01*
X56612030Y-45391204D01*
X56642681Y-45080000D01*
X56612030Y-44768796D01*
X56521255Y-44469551D01*
X56373845Y-44193765D01*
X56175463Y-43952037D01*
X56002391Y-43810000D01*
X56175463Y-43667963D01*
X56373845Y-43426235D01*
X56521255Y-43150449D01*
X56612030Y-42851204D01*
X56642681Y-42540000D01*
X62357319Y-42540000D01*
X62387970Y-42851204D01*
X62478745Y-43150449D01*
X62626155Y-43426235D01*
X62824537Y-43667963D01*
X62997609Y-43810000D01*
X62824537Y-43952037D01*
X62626155Y-44193765D01*
X62478745Y-44469551D01*
X62387970Y-44768796D01*
X62357319Y-45080000D01*
X62387970Y-45391204D01*
X62478745Y-45690449D01*
X62626155Y-45966235D01*
X62824537Y-46207963D01*
X63066265Y-46406345D01*
X63342051Y-46553755D01*
X63641296Y-46644530D01*
X63874514Y-46667500D01*
X64125486Y-46667500D01*
X64358704Y-46644530D01*
X64657949Y-46553755D01*
X64933735Y-46406345D01*
X65175463Y-46207963D01*
X65373845Y-45966235D01*
X65521255Y-45690449D01*
X65593290Y-45452980D01*
X91409437Y-45452980D01*
X91480429Y-45671094D01*
X91624031Y-45946923D01*
X91818685Y-46189437D01*
X92056911Y-46389316D01*
X92329554Y-46538879D01*
X92626137Y-46632378D01*
X92873000Y-46505570D01*
X92873000Y-45207000D01*
X93127000Y-45207000D01*
X93127000Y-46505570D01*
X93373863Y-46632378D01*
X93670446Y-46538879D01*
X93943089Y-46389316D01*
X94181315Y-46189437D01*
X94375969Y-45946923D01*
X94519571Y-45671094D01*
X94590563Y-45452980D01*
X94470594Y-45207000D01*
X93127000Y-45207000D01*
X92873000Y-45207000D01*
X91529406Y-45207000D01*
X91409437Y-45452980D01*
X65593290Y-45452980D01*
X65612030Y-45391204D01*
X65642681Y-45080000D01*
X65612030Y-44768796D01*
X65521255Y-44469551D01*
X65373845Y-44193765D01*
X65175463Y-43952037D01*
X65002391Y-43810000D01*
X65175463Y-43667963D01*
X65373845Y-43426235D01*
X65521255Y-43150449D01*
X65612030Y-42851204D01*
X65642681Y-42540000D01*
X91357319Y-42540000D01*
X91387970Y-42851204D01*
X91478745Y-43150449D01*
X91626155Y-43426235D01*
X91824537Y-43667963D01*
X92003899Y-43815163D01*
X91818685Y-43970563D01*
X91624031Y-44213077D01*
X91480429Y-44488906D01*
X91409437Y-44707020D01*
X91529406Y-44953000D01*
X92873000Y-44953000D01*
X92873000Y-44933000D01*
X93127000Y-44933000D01*
X93127000Y-44953000D01*
X94470594Y-44953000D01*
X94590563Y-44707020D01*
X94519571Y-44488906D01*
X94375969Y-44213077D01*
X94181315Y-43970563D01*
X93996101Y-43815163D01*
X94175463Y-43667963D01*
X94373845Y-43426235D01*
X94521255Y-43150449D01*
X94612030Y-42851204D01*
X94642681Y-42540000D01*
X94612030Y-42228796D01*
X94521255Y-41929551D01*
X94373845Y-41653765D01*
X94270554Y-41527905D01*
X94354494Y-41483037D01*
X94451185Y-41403685D01*
X94530537Y-41306994D01*
X94589502Y-41196680D01*
X94625812Y-41076982D01*
X94638072Y-40952500D01*
X94638072Y-39047500D01*
X94625812Y-38923018D01*
X94589502Y-38803320D01*
X94530537Y-38693006D01*
X94451185Y-38596315D01*
X94354494Y-38516963D01*
X94244180Y-38457998D01*
X94124482Y-38421688D01*
X94000000Y-38409428D01*
X92000000Y-38409428D01*
X91875518Y-38421688D01*
X91755820Y-38457998D01*
X91645506Y-38516963D01*
X91548815Y-38596315D01*
X91469463Y-38693006D01*
X91410498Y-38803320D01*
X91374188Y-38923018D01*
X91361928Y-39047500D01*
X91361928Y-40952500D01*
X91374188Y-41076982D01*
X91410498Y-41196680D01*
X91469463Y-41306994D01*
X91548815Y-41403685D01*
X91645506Y-41483037D01*
X91729446Y-41527905D01*
X91626155Y-41653765D01*
X91478745Y-41929551D01*
X91387970Y-42228796D01*
X91357319Y-42540000D01*
X65642681Y-42540000D01*
X65612030Y-42228796D01*
X65521255Y-41929551D01*
X65373845Y-41653765D01*
X65270554Y-41527905D01*
X65354494Y-41483037D01*
X65451185Y-41403685D01*
X65530537Y-41306994D01*
X65589502Y-41196680D01*
X65625812Y-41076982D01*
X65638072Y-40952500D01*
X65638072Y-39047500D01*
X65625812Y-38923018D01*
X65589502Y-38803320D01*
X65530537Y-38693006D01*
X65451185Y-38596315D01*
X65354494Y-38516963D01*
X65244180Y-38457998D01*
X65124482Y-38421688D01*
X65000000Y-38409428D01*
X63000000Y-38409428D01*
X62875518Y-38421688D01*
X62755820Y-38457998D01*
X62645506Y-38516963D01*
X62548815Y-38596315D01*
X62469463Y-38693006D01*
X62410498Y-38803320D01*
X62374188Y-38923018D01*
X62361928Y-39047500D01*
X62361928Y-40952500D01*
X62374188Y-41076982D01*
X62410498Y-41196680D01*
X62469463Y-41306994D01*
X62548815Y-41403685D01*
X62645506Y-41483037D01*
X62729446Y-41527905D01*
X62626155Y-41653765D01*
X62478745Y-41929551D01*
X62387970Y-42228796D01*
X62357319Y-42540000D01*
X56642681Y-42540000D01*
X56612030Y-42228796D01*
X56521255Y-41929551D01*
X56373845Y-41653765D01*
X56270554Y-41527905D01*
X56354494Y-41483037D01*
X56451185Y-41403685D01*
X56530537Y-41306994D01*
X56589502Y-41196680D01*
X56625812Y-41076982D01*
X56638072Y-40952500D01*
X56638072Y-39047500D01*
X56625812Y-38923018D01*
X56589502Y-38803320D01*
X56530537Y-38693006D01*
X56451185Y-38596315D01*
X56354494Y-38516963D01*
X56244180Y-38457998D01*
X56124482Y-38421688D01*
X56000000Y-38409428D01*
X54000000Y-38409428D01*
X53875518Y-38421688D01*
X53755820Y-38457998D01*
X53645506Y-38516963D01*
X53548815Y-38596315D01*
X53469463Y-38693006D01*
X53410498Y-38803320D01*
X53374188Y-38923018D01*
X53361928Y-39047500D01*
X53361928Y-40952500D01*
X53374188Y-41076982D01*
X53410498Y-41196680D01*
X53469463Y-41306994D01*
X53548815Y-41403685D01*
X53645506Y-41483037D01*
X53729446Y-41527905D01*
X53626155Y-41653765D01*
X53478745Y-41929551D01*
X53387970Y-42228796D01*
X53357319Y-42540000D01*
X41127000Y-42540000D01*
X41127000Y-40052606D01*
X50629666Y-30549940D01*
X54611868Y-30549940D01*
X54611868Y-34050060D01*
X54624128Y-34174542D01*
X54660438Y-34294240D01*
X54719403Y-34404554D01*
X54798755Y-34501245D01*
X54895446Y-34580597D01*
X55005760Y-34639562D01*
X55125458Y-34675872D01*
X55249940Y-34688132D01*
X58750060Y-34688132D01*
X58874542Y-34675872D01*
X58994240Y-34639562D01*
X59104554Y-34580597D01*
X59201245Y-34501245D01*
X59280597Y-34404554D01*
X59339562Y-34294240D01*
X59375872Y-34174542D01*
X59388132Y-34050060D01*
X59388132Y-33969651D01*
X60589954Y-33969651D01*
X60776039Y-34310815D01*
X61193384Y-34526568D01*
X61644802Y-34656755D01*
X62112944Y-34696374D01*
X62579821Y-34643901D01*
X63027489Y-34501354D01*
X63383961Y-34310815D01*
X63570046Y-33969651D01*
X62080000Y-32479605D01*
X60589954Y-33969651D01*
X59388132Y-33969651D01*
X59388132Y-32332944D01*
X59683626Y-32332944D01*
X59736099Y-32799821D01*
X59878646Y-33247489D01*
X60069185Y-33603961D01*
X60410349Y-33790046D01*
X61900395Y-32300000D01*
X62259605Y-32300000D01*
X63749651Y-33790046D01*
X64090815Y-33603961D01*
X64306568Y-33186616D01*
X64436755Y-32735198D01*
X64476374Y-32267056D01*
X64423901Y-31800179D01*
X64281354Y-31352511D01*
X64090815Y-30996039D01*
X63749651Y-30809954D01*
X62259605Y-32300000D01*
X61900395Y-32300000D01*
X60410349Y-30809954D01*
X60069185Y-30996039D01*
X59853432Y-31413384D01*
X59723245Y-31864802D01*
X59683626Y-32332944D01*
X59388132Y-32332944D01*
X59388132Y-30630349D01*
X60589954Y-30630349D01*
X62080000Y-32120395D01*
X63570046Y-30630349D01*
X63383961Y-30289185D01*
X63308047Y-30249940D01*
X97611868Y-30249940D01*
X97611868Y-33750060D01*
X97624128Y-33874542D01*
X97660438Y-33994240D01*
X97719403Y-34104554D01*
X97798755Y-34201245D01*
X97895446Y-34280597D01*
X98005760Y-34339562D01*
X98125458Y-34375872D01*
X98249940Y-34388132D01*
X98865000Y-34388132D01*
X98865001Y-41944239D01*
X98859509Y-42000000D01*
X98881423Y-42222498D01*
X98946324Y-42436446D01*
X98946325Y-42436447D01*
X99051717Y-42633623D01*
X99193552Y-42806449D01*
X99236860Y-42841991D01*
X100736856Y-44341988D01*
X100736862Y-44341993D01*
X101236857Y-44841988D01*
X101366378Y-44948284D01*
X101563553Y-45053676D01*
X101777501Y-45118577D01*
X102000000Y-45140491D01*
X102222499Y-45118577D01*
X102436446Y-45053676D01*
X102633622Y-44948284D01*
X102806449Y-44806449D01*
X102948284Y-44633622D01*
X103053676Y-44436446D01*
X103118577Y-44222499D01*
X103140491Y-44000000D01*
X103118577Y-43777501D01*
X103053676Y-43563553D01*
X102948284Y-43366378D01*
X102841988Y-43236857D01*
X102341993Y-42736862D01*
X102341988Y-42736856D01*
X101135000Y-41529869D01*
X101135000Y-34388132D01*
X101750060Y-34388132D01*
X101874542Y-34375872D01*
X101994240Y-34339562D01*
X102104554Y-34280597D01*
X102201245Y-34201245D01*
X102280597Y-34104554D01*
X102339562Y-33994240D01*
X102375872Y-33874542D01*
X102388132Y-33750060D01*
X102388132Y-31765092D01*
X102694940Y-31765092D01*
X102694940Y-32234908D01*
X102786597Y-32695696D01*
X102966387Y-33129749D01*
X103227403Y-33520387D01*
X103559613Y-33852597D01*
X103950251Y-34113613D01*
X104384304Y-34293403D01*
X104845092Y-34385060D01*
X105314908Y-34385060D01*
X105775696Y-34293403D01*
X106209749Y-34113613D01*
X106600387Y-33852597D01*
X106932597Y-33520387D01*
X107193613Y-33129749D01*
X107373403Y-32695696D01*
X107465060Y-32234908D01*
X107465060Y-31765092D01*
X107373403Y-31304304D01*
X107226622Y-30949940D01*
X116611868Y-30949940D01*
X116611868Y-34450060D01*
X116624128Y-34574542D01*
X116660438Y-34694240D01*
X116719403Y-34804554D01*
X116798755Y-34901245D01*
X116895446Y-34980597D01*
X117005760Y-35039562D01*
X117125458Y-35075872D01*
X117249940Y-35088132D01*
X120750060Y-35088132D01*
X120874542Y-35075872D01*
X120994240Y-35039562D01*
X121104554Y-34980597D01*
X121201245Y-34901245D01*
X121280597Y-34804554D01*
X121339562Y-34694240D01*
X121375872Y-34574542D01*
X121388132Y-34450060D01*
X121388132Y-34369651D01*
X122589954Y-34369651D01*
X122776039Y-34710815D01*
X123193384Y-34926568D01*
X123644802Y-35056755D01*
X124112944Y-35096374D01*
X124579821Y-35043901D01*
X125027489Y-34901354D01*
X125383961Y-34710815D01*
X125570046Y-34369651D01*
X124080000Y-32879605D01*
X122589954Y-34369651D01*
X121388132Y-34369651D01*
X121388132Y-32732944D01*
X121683626Y-32732944D01*
X121736099Y-33199821D01*
X121878646Y-33647489D01*
X122069185Y-34003961D01*
X122410349Y-34190046D01*
X123900395Y-32700000D01*
X124259605Y-32700000D01*
X125749651Y-34190046D01*
X126090815Y-34003961D01*
X126306568Y-33586616D01*
X126436755Y-33135198D01*
X126476374Y-32667056D01*
X126423901Y-32200179D01*
X126281354Y-31752511D01*
X126090815Y-31396039D01*
X125822961Y-31249940D01*
X128611868Y-31249940D01*
X128611868Y-34750060D01*
X128624128Y-34874542D01*
X128660438Y-34994240D01*
X128719403Y-35104554D01*
X128798755Y-35201245D01*
X128895446Y-35280597D01*
X129005760Y-35339562D01*
X129125458Y-35375872D01*
X129249940Y-35388132D01*
X132750060Y-35388132D01*
X132874542Y-35375872D01*
X132994240Y-35339562D01*
X133104554Y-35280597D01*
X133201245Y-35201245D01*
X133280597Y-35104554D01*
X133339562Y-34994240D01*
X133375872Y-34874542D01*
X133388132Y-34750060D01*
X133388132Y-34669651D01*
X134589954Y-34669651D01*
X134776039Y-35010815D01*
X135193384Y-35226568D01*
X135644802Y-35356755D01*
X136112944Y-35396374D01*
X136579821Y-35343901D01*
X137027489Y-35201354D01*
X137383961Y-35010815D01*
X137570046Y-34669651D01*
X136080000Y-33179605D01*
X134589954Y-34669651D01*
X133388132Y-34669651D01*
X133388132Y-33032944D01*
X133683626Y-33032944D01*
X133736099Y-33499821D01*
X133878646Y-33947489D01*
X134069185Y-34303961D01*
X134410349Y-34490046D01*
X135900395Y-33000000D01*
X136259605Y-33000000D01*
X137749651Y-34490046D01*
X138090815Y-34303961D01*
X138306568Y-33886616D01*
X138436755Y-33435198D01*
X138476374Y-32967056D01*
X138423901Y-32500179D01*
X138281354Y-32052511D01*
X138090815Y-31696039D01*
X137749651Y-31509954D01*
X136259605Y-33000000D01*
X135900395Y-33000000D01*
X134410349Y-31509954D01*
X134069185Y-31696039D01*
X133853432Y-32113384D01*
X133723245Y-32564802D01*
X133683626Y-33032944D01*
X133388132Y-33032944D01*
X133388132Y-31330349D01*
X134589954Y-31330349D01*
X136080000Y-32820395D01*
X137570046Y-31330349D01*
X137383961Y-30989185D01*
X136966616Y-30773432D01*
X136515198Y-30643245D01*
X136047056Y-30603626D01*
X135580179Y-30656099D01*
X135132511Y-30798646D01*
X134776039Y-30989185D01*
X134589954Y-31330349D01*
X133388132Y-31330349D01*
X133388132Y-31249940D01*
X133375872Y-31125458D01*
X133339562Y-31005760D01*
X133280597Y-30895446D01*
X133201245Y-30798755D01*
X133104554Y-30719403D01*
X132994240Y-30660438D01*
X132874542Y-30624128D01*
X132750060Y-30611868D01*
X129249940Y-30611868D01*
X129125458Y-30624128D01*
X129005760Y-30660438D01*
X128895446Y-30719403D01*
X128798755Y-30798755D01*
X128719403Y-30895446D01*
X128660438Y-31005760D01*
X128624128Y-31125458D01*
X128611868Y-31249940D01*
X125822961Y-31249940D01*
X125749651Y-31209954D01*
X124259605Y-32700000D01*
X123900395Y-32700000D01*
X122410349Y-31209954D01*
X122069185Y-31396039D01*
X121853432Y-31813384D01*
X121723245Y-32264802D01*
X121683626Y-32732944D01*
X121388132Y-32732944D01*
X121388132Y-31030349D01*
X122589954Y-31030349D01*
X124080000Y-32520395D01*
X125570046Y-31030349D01*
X125383961Y-30689185D01*
X124966616Y-30473432D01*
X124515198Y-30343245D01*
X124047056Y-30303626D01*
X123580179Y-30356099D01*
X123132511Y-30498646D01*
X122776039Y-30689185D01*
X122589954Y-31030349D01*
X121388132Y-31030349D01*
X121388132Y-30949940D01*
X121375872Y-30825458D01*
X121339562Y-30705760D01*
X121280597Y-30595446D01*
X121201245Y-30498755D01*
X121104554Y-30419403D01*
X120994240Y-30360438D01*
X120874542Y-30324128D01*
X120750060Y-30311868D01*
X117249940Y-30311868D01*
X117125458Y-30324128D01*
X117005760Y-30360438D01*
X116895446Y-30419403D01*
X116798755Y-30498755D01*
X116719403Y-30595446D01*
X116660438Y-30705760D01*
X116624128Y-30825458D01*
X116611868Y-30949940D01*
X107226622Y-30949940D01*
X107193613Y-30870251D01*
X106932597Y-30479613D01*
X106600387Y-30147403D01*
X106209749Y-29886387D01*
X105775696Y-29706597D01*
X105314908Y-29614940D01*
X104845092Y-29614940D01*
X104384304Y-29706597D01*
X103950251Y-29886387D01*
X103559613Y-30147403D01*
X103227403Y-30479613D01*
X102966387Y-30870251D01*
X102786597Y-31304304D01*
X102694940Y-31765092D01*
X102388132Y-31765092D01*
X102388132Y-30249940D01*
X102375872Y-30125458D01*
X102339562Y-30005760D01*
X102280597Y-29895446D01*
X102201245Y-29798755D01*
X102104554Y-29719403D01*
X101994240Y-29660438D01*
X101874542Y-29624128D01*
X101750060Y-29611868D01*
X98249940Y-29611868D01*
X98125458Y-29624128D01*
X98005760Y-29660438D01*
X97895446Y-29719403D01*
X97798755Y-29798755D01*
X97719403Y-29895446D01*
X97660438Y-30005760D01*
X97624128Y-30125458D01*
X97611868Y-30249940D01*
X63308047Y-30249940D01*
X62966616Y-30073432D01*
X62515198Y-29943245D01*
X62047056Y-29903626D01*
X61580179Y-29956099D01*
X61132511Y-30098646D01*
X60776039Y-30289185D01*
X60589954Y-30630349D01*
X59388132Y-30630349D01*
X59388132Y-30549940D01*
X59375872Y-30425458D01*
X59339562Y-30305760D01*
X59280597Y-30195446D01*
X59201245Y-30098755D01*
X59104554Y-30019403D01*
X58994240Y-29960438D01*
X58874542Y-29924128D01*
X58750060Y-29911868D01*
X55249940Y-29911868D01*
X55125458Y-29924128D01*
X55005760Y-29960438D01*
X54895446Y-30019403D01*
X54798755Y-30098755D01*
X54719403Y-30195446D01*
X54660438Y-30305760D01*
X54624128Y-30425458D01*
X54611868Y-30549940D01*
X50629666Y-30549940D01*
X52052606Y-29127000D01*
X139947394Y-29127000D01*
X151873000Y-41052606D01*
G37*
X151873000Y-41052606D02*
X151873000Y-58947394D01*
X146947394Y-63873000D01*
X117000000Y-63873000D01*
X116975224Y-63875440D01*
X116951399Y-63882667D01*
X116929443Y-63894403D01*
X116910197Y-63910197D01*
X102947394Y-77873000D01*
X47052606Y-77873000D01*
X42429546Y-73249940D01*
X48611868Y-73249940D01*
X48611868Y-76750060D01*
X48624128Y-76874542D01*
X48660438Y-76994240D01*
X48719403Y-77104554D01*
X48798755Y-77201245D01*
X48895446Y-77280597D01*
X49005760Y-77339562D01*
X49125458Y-77375872D01*
X49249940Y-77388132D01*
X52750060Y-77388132D01*
X52874542Y-77375872D01*
X52994240Y-77339562D01*
X53104554Y-77280597D01*
X53201245Y-77201245D01*
X53280597Y-77104554D01*
X53339562Y-76994240D01*
X53375872Y-76874542D01*
X53388132Y-76750060D01*
X53388132Y-74765092D01*
X53694940Y-74765092D01*
X53694940Y-75234908D01*
X53786597Y-75695696D01*
X53966387Y-76129749D01*
X54227403Y-76520387D01*
X54559613Y-76852597D01*
X54950251Y-77113613D01*
X55384304Y-77293403D01*
X55845092Y-77385060D01*
X56314908Y-77385060D01*
X56775696Y-77293403D01*
X57209749Y-77113613D01*
X57600387Y-76852597D01*
X57932597Y-76520387D01*
X58193613Y-76129749D01*
X58373403Y-75695696D01*
X58465060Y-75234908D01*
X58465060Y-74765092D01*
X58373403Y-74304304D01*
X58193613Y-73870251D01*
X57932597Y-73479613D01*
X57600387Y-73147403D01*
X57209749Y-72886387D01*
X56775696Y-72706597D01*
X56314908Y-72614940D01*
X55845092Y-72614940D01*
X55384304Y-72706597D01*
X54950251Y-72886387D01*
X54559613Y-73147403D01*
X54227403Y-73479613D01*
X53966387Y-73870251D01*
X53786597Y-74304304D01*
X53694940Y-74765092D01*
X53388132Y-74765092D01*
X53388132Y-73249940D01*
X53375872Y-73125458D01*
X53339562Y-73005760D01*
X53280597Y-72895446D01*
X53201245Y-72798755D01*
X53104554Y-72719403D01*
X52994240Y-72660438D01*
X52874542Y-72624128D01*
X52750060Y-72611868D01*
X49249940Y-72611868D01*
X49125458Y-72624128D01*
X49005760Y-72660438D01*
X48895446Y-72719403D01*
X48798755Y-72798755D01*
X48719403Y-72895446D01*
X48660438Y-73005760D01*
X48624128Y-73125458D01*
X48611868Y-73249940D01*
X42429546Y-73249940D01*
X41127000Y-71947394D01*
X41127000Y-67452980D01*
X47409437Y-67452980D01*
X47480429Y-67671094D01*
X47624031Y-67946923D01*
X47818685Y-68189437D01*
X48056911Y-68389316D01*
X48329554Y-68538879D01*
X48626137Y-68632378D01*
X48873000Y-68505570D01*
X48873000Y-67207000D01*
X49127000Y-67207000D01*
X49127000Y-68505570D01*
X49373863Y-68632378D01*
X49670446Y-68538879D01*
X49943089Y-68389316D01*
X50181315Y-68189437D01*
X50375969Y-67946923D01*
X50519571Y-67671094D01*
X50590563Y-67452980D01*
X50470594Y-67207000D01*
X49127000Y-67207000D01*
X48873000Y-67207000D01*
X47529406Y-67207000D01*
X47409437Y-67452980D01*
X41127000Y-67452980D01*
X41127000Y-64540000D01*
X47357319Y-64540000D01*
X47387970Y-64851204D01*
X47478745Y-65150449D01*
X47626155Y-65426235D01*
X47824537Y-65667963D01*
X48003899Y-65815163D01*
X47818685Y-65970563D01*
X47624031Y-66213077D01*
X47480429Y-66488906D01*
X47409437Y-66707020D01*
X47529406Y-66953000D01*
X48873000Y-66953000D01*
X48873000Y-66933000D01*
X49127000Y-66933000D01*
X49127000Y-66953000D01*
X50470594Y-66953000D01*
X50590563Y-66707020D01*
X50519571Y-66488906D01*
X50375969Y-66213077D01*
X50181315Y-65970563D01*
X49996101Y-65815163D01*
X50175463Y-65667963D01*
X50373845Y-65426235D01*
X50521255Y-65150449D01*
X50612030Y-64851204D01*
X50642681Y-64540000D01*
X50612030Y-64228796D01*
X50521255Y-63929551D01*
X50373845Y-63653765D01*
X50270554Y-63527905D01*
X50354494Y-63483037D01*
X50451185Y-63403685D01*
X50530537Y-63306994D01*
X50589502Y-63196680D01*
X50608212Y-63135000D01*
X61529869Y-63135000D01*
X62365001Y-63970133D01*
X62365000Y-72611868D01*
X60249940Y-72611868D01*
X60125458Y-72624128D01*
X60005760Y-72660438D01*
X59895446Y-72719403D01*
X59798755Y-72798755D01*
X59719403Y-72895446D01*
X59660438Y-73005760D01*
X59624128Y-73125458D01*
X59611868Y-73249940D01*
X59611868Y-76750060D01*
X59624128Y-76874542D01*
X59660438Y-76994240D01*
X59719403Y-77104554D01*
X59798755Y-77201245D01*
X59895446Y-77280597D01*
X60005760Y-77339562D01*
X60125458Y-77375872D01*
X60249940Y-77388132D01*
X63750060Y-77388132D01*
X63874542Y-77375872D01*
X63994240Y-77339562D01*
X64104554Y-77280597D01*
X64201245Y-77201245D01*
X64280597Y-77104554D01*
X64339562Y-76994240D01*
X64375872Y-76874542D01*
X64388132Y-76750060D01*
X64388132Y-75406918D01*
X64448284Y-75333623D01*
X64553676Y-75136447D01*
X64618577Y-74922499D01*
X64634080Y-74765092D01*
X64694940Y-74765092D01*
X64694940Y-75234908D01*
X64786597Y-75695696D01*
X64966387Y-76129749D01*
X65227403Y-76520387D01*
X65559613Y-76852597D01*
X65950251Y-77113613D01*
X66384304Y-77293403D01*
X66845092Y-77385060D01*
X67314908Y-77385060D01*
X67775696Y-77293403D01*
X68209749Y-77113613D01*
X68600387Y-76852597D01*
X68783333Y-76669651D01*
X79429954Y-76669651D01*
X79616039Y-77010815D01*
X80033384Y-77226568D01*
X80484802Y-77356755D01*
X80952944Y-77396374D01*
X81419821Y-77343901D01*
X81867489Y-77201354D01*
X82223961Y-77010815D01*
X82410046Y-76669651D01*
X80920000Y-75179605D01*
X79429954Y-76669651D01*
X68783333Y-76669651D01*
X68932597Y-76520387D01*
X69193613Y-76129749D01*
X69373403Y-75695696D01*
X69465060Y-75234908D01*
X69465060Y-75032944D01*
X78523626Y-75032944D01*
X78576099Y-75499821D01*
X78718646Y-75947489D01*
X78909185Y-76303961D01*
X79250349Y-76490046D01*
X80740395Y-75000000D01*
X81099605Y-75000000D01*
X82589651Y-76490046D01*
X82930815Y-76303961D01*
X83146568Y-75886616D01*
X83276755Y-75435198D01*
X83316374Y-74967056D01*
X83263901Y-74500179D01*
X83121354Y-74052511D01*
X82930815Y-73696039D01*
X82589651Y-73509954D01*
X81099605Y-75000000D01*
X80740395Y-75000000D01*
X79250349Y-73509954D01*
X78909185Y-73696039D01*
X78693432Y-74113384D01*
X78563245Y-74564802D01*
X78523626Y-75032944D01*
X69465060Y-75032944D01*
X69465060Y-74765092D01*
X69373403Y-74304304D01*
X69193613Y-73870251D01*
X68932597Y-73479613D01*
X68783333Y-73330349D01*
X79429954Y-73330349D01*
X80920000Y-74820395D01*
X82410046Y-73330349D01*
X82366188Y-73249940D01*
X83611868Y-73249940D01*
X83611868Y-76750060D01*
X83624128Y-76874542D01*
X83660438Y-76994240D01*
X83719403Y-77104554D01*
X83798755Y-77201245D01*
X83895446Y-77280597D01*
X84005760Y-77339562D01*
X84125458Y-77375872D01*
X84249940Y-77388132D01*
X87750060Y-77388132D01*
X87874542Y-77375872D01*
X87994240Y-77339562D01*
X88104554Y-77280597D01*
X88201245Y-77201245D01*
X88280597Y-77104554D01*
X88339562Y-76994240D01*
X88375872Y-76874542D01*
X88388132Y-76750060D01*
X88388132Y-73249940D01*
X92611868Y-73249940D01*
X92611868Y-76750060D01*
X92624128Y-76874542D01*
X92660438Y-76994240D01*
X92719403Y-77104554D01*
X92798755Y-77201245D01*
X92895446Y-77280597D01*
X93005760Y-77339562D01*
X93125458Y-77375872D01*
X93249940Y-77388132D01*
X96750060Y-77388132D01*
X96874542Y-77375872D01*
X96994240Y-77339562D01*
X97104554Y-77280597D01*
X97201245Y-77201245D01*
X97280597Y-77104554D01*
X97339562Y-76994240D01*
X97375872Y-76874542D01*
X97388132Y-76750060D01*
X97388132Y-76669651D01*
X98589954Y-76669651D01*
X98776039Y-77010815D01*
X99193384Y-77226568D01*
X99644802Y-77356755D01*
X100112944Y-77396374D01*
X100579821Y-77343901D01*
X101027489Y-77201354D01*
X101383961Y-77010815D01*
X101570046Y-76669651D01*
X100080000Y-75179605D01*
X98589954Y-76669651D01*
X97388132Y-76669651D01*
X97388132Y-75032944D01*
X97683626Y-75032944D01*
X97736099Y-75499821D01*
X97878646Y-75947489D01*
X98069185Y-76303961D01*
X98410349Y-76490046D01*
X99900395Y-75000000D01*
X100259605Y-75000000D01*
X101749651Y-76490046D01*
X102090815Y-76303961D01*
X102306568Y-75886616D01*
X102436755Y-75435198D01*
X102476374Y-74967056D01*
X102423901Y-74500179D01*
X102281354Y-74052511D01*
X102090815Y-73696039D01*
X101749651Y-73509954D01*
X100259605Y-75000000D01*
X99900395Y-75000000D01*
X98410349Y-73509954D01*
X98069185Y-73696039D01*
X97853432Y-74113384D01*
X97723245Y-74564802D01*
X97683626Y-75032944D01*
X97388132Y-75032944D01*
X97388132Y-73330349D01*
X98589954Y-73330349D01*
X100080000Y-74820395D01*
X101570046Y-73330349D01*
X101383961Y-72989185D01*
X100966616Y-72773432D01*
X100515198Y-72643245D01*
X100047056Y-72603626D01*
X99580179Y-72656099D01*
X99132511Y-72798646D01*
X98776039Y-72989185D01*
X98589954Y-73330349D01*
X97388132Y-73330349D01*
X97388132Y-73249940D01*
X97375872Y-73125458D01*
X97339562Y-73005760D01*
X97280597Y-72895446D01*
X97201245Y-72798755D01*
X97104554Y-72719403D01*
X96994240Y-72660438D01*
X96874542Y-72624128D01*
X96750060Y-72611868D01*
X93249940Y-72611868D01*
X93125458Y-72624128D01*
X93005760Y-72660438D01*
X92895446Y-72719403D01*
X92798755Y-72798755D01*
X92719403Y-72895446D01*
X92660438Y-73005760D01*
X92624128Y-73125458D01*
X92611868Y-73249940D01*
X88388132Y-73249940D01*
X88375872Y-73125458D01*
X88339562Y-73005760D01*
X88280597Y-72895446D01*
X88201245Y-72798755D01*
X88104554Y-72719403D01*
X87994240Y-72660438D01*
X87874542Y-72624128D01*
X87750060Y-72611868D01*
X84249940Y-72611868D01*
X84125458Y-72624128D01*
X84005760Y-72660438D01*
X83895446Y-72719403D01*
X83798755Y-72798755D01*
X83719403Y-72895446D01*
X83660438Y-73005760D01*
X83624128Y-73125458D01*
X83611868Y-73249940D01*
X82366188Y-73249940D01*
X82223961Y-72989185D01*
X81806616Y-72773432D01*
X81355198Y-72643245D01*
X80887056Y-72603626D01*
X80420179Y-72656099D01*
X79972511Y-72798646D01*
X79616039Y-72989185D01*
X79429954Y-73330349D01*
X68783333Y-73330349D01*
X68600387Y-73147403D01*
X68209749Y-72886387D01*
X67775696Y-72706597D01*
X67314908Y-72614940D01*
X67035000Y-72614940D01*
X67035000Y-66912980D01*
X68409437Y-66912980D01*
X68480429Y-67131094D01*
X68624031Y-67406923D01*
X68818685Y-67649437D01*
X69056911Y-67849316D01*
X69329554Y-67998879D01*
X69626137Y-68092378D01*
X69873000Y-67965570D01*
X69873000Y-66667000D01*
X70127000Y-66667000D01*
X70127000Y-67965570D01*
X70373863Y-68092378D01*
X70670446Y-67998879D01*
X70943089Y-67849316D01*
X71181315Y-67649437D01*
X71375969Y-67406923D01*
X71519571Y-67131094D01*
X71590563Y-66912980D01*
X71470594Y-66667000D01*
X70127000Y-66667000D01*
X69873000Y-66667000D01*
X68529406Y-66667000D01*
X68409437Y-66912980D01*
X67035000Y-66912980D01*
X67035000Y-64030131D01*
X68410022Y-62655110D01*
X68410498Y-62656680D01*
X68469463Y-62766994D01*
X68548815Y-62863685D01*
X68645506Y-62943037D01*
X68729446Y-62987905D01*
X68626155Y-63113765D01*
X68478745Y-63389551D01*
X68387970Y-63688796D01*
X68357319Y-64000000D01*
X68387970Y-64311204D01*
X68478745Y-64610449D01*
X68626155Y-64886235D01*
X68824537Y-65127963D01*
X69003899Y-65275163D01*
X68818685Y-65430563D01*
X68624031Y-65673077D01*
X68480429Y-65948906D01*
X68409437Y-66167020D01*
X68529406Y-66413000D01*
X69873000Y-66413000D01*
X69873000Y-66393000D01*
X70127000Y-66393000D01*
X70127000Y-66413000D01*
X71470594Y-66413000D01*
X71590563Y-66167020D01*
X71519571Y-65948906D01*
X71465898Y-65845810D01*
X104656036Y-65845810D01*
X104664728Y-65907337D01*
X104757725Y-66116882D01*
X104889816Y-66304258D01*
X105055924Y-66462264D01*
X105249666Y-66584828D01*
X105463596Y-66667239D01*
X105689493Y-66706331D01*
X105873000Y-66546598D01*
X105873000Y-65667000D01*
X106127000Y-65667000D01*
X106127000Y-66546598D01*
X106310507Y-66706331D01*
X106536404Y-66667239D01*
X106750334Y-66584828D01*
X106944076Y-66462264D01*
X107110184Y-66304258D01*
X107242275Y-66116882D01*
X107335272Y-65907337D01*
X107343964Y-65845810D01*
X107218163Y-65667000D01*
X106127000Y-65667000D01*
X105873000Y-65667000D01*
X104781837Y-65667000D01*
X104656036Y-65845810D01*
X71465898Y-65845810D01*
X71375969Y-65673077D01*
X71181315Y-65430563D01*
X70996101Y-65275163D01*
X71175463Y-65127963D01*
X71373845Y-64886235D01*
X71521255Y-64610449D01*
X71612030Y-64311204D01*
X71642681Y-64000000D01*
X71612030Y-63688796D01*
X71521255Y-63389551D01*
X71373845Y-63113765D01*
X71270554Y-62987905D01*
X71354494Y-62943037D01*
X71451185Y-62863685D01*
X71530537Y-62766994D01*
X71589502Y-62656680D01*
X71625812Y-62536982D01*
X71638072Y-62412500D01*
X71638072Y-60507500D01*
X71625812Y-60383018D01*
X71589502Y-60263320D01*
X71530537Y-60153006D01*
X71451185Y-60056315D01*
X71354494Y-59976963D01*
X71244180Y-59917998D01*
X71124482Y-59881688D01*
X71000000Y-59869428D01*
X69000000Y-59869428D01*
X68875518Y-59881688D01*
X68755820Y-59917998D01*
X68645506Y-59976963D01*
X68548815Y-60056315D01*
X68469463Y-60153006D01*
X68410498Y-60263320D01*
X68391788Y-60325000D01*
X68055741Y-60325000D01*
X67999999Y-60319510D01*
X67944257Y-60325000D01*
X67944248Y-60325000D01*
X67777501Y-60341423D01*
X67563553Y-60406324D01*
X67366377Y-60511716D01*
X67193551Y-60653551D01*
X67158009Y-60696859D01*
X65136865Y-62718004D01*
X65093551Y-62753551D01*
X64951716Y-62926377D01*
X64878395Y-63063553D01*
X64846324Y-63123554D01*
X64781423Y-63337502D01*
X64759509Y-63560000D01*
X64765000Y-63615752D01*
X64765001Y-73654290D01*
X64765000Y-73654300D01*
X64765000Y-74412879D01*
X64694940Y-74765092D01*
X64634080Y-74765092D01*
X64635000Y-74755752D01*
X64635000Y-63555741D01*
X64640490Y-63499999D01*
X64635000Y-63444257D01*
X64635000Y-63444248D01*
X64618577Y-63277501D01*
X64553676Y-63063553D01*
X64448284Y-62866377D01*
X64306449Y-62693551D01*
X64263140Y-62658008D01*
X62841996Y-61236865D01*
X62806449Y-61193551D01*
X62633623Y-61051716D01*
X62436447Y-60946324D01*
X62222499Y-60881423D01*
X62055752Y-60865000D01*
X62055751Y-60865000D01*
X62000000Y-60859509D01*
X61944249Y-60865000D01*
X50608212Y-60865000D01*
X50589502Y-60803320D01*
X50530537Y-60693006D01*
X50451185Y-60596315D01*
X50354494Y-60516963D01*
X50244180Y-60457998D01*
X50124482Y-60421688D01*
X50000000Y-60409428D01*
X48000000Y-60409428D01*
X47875518Y-60421688D01*
X47755820Y-60457998D01*
X47645506Y-60516963D01*
X47548815Y-60596315D01*
X47469463Y-60693006D01*
X47410498Y-60803320D01*
X47374188Y-60923018D01*
X47361928Y-61047500D01*
X47361928Y-62952500D01*
X47374188Y-63076982D01*
X47410498Y-63196680D01*
X47469463Y-63306994D01*
X47548815Y-63403685D01*
X47645506Y-63483037D01*
X47729446Y-63527905D01*
X47626155Y-63653765D01*
X47478745Y-63929551D01*
X47387970Y-64228796D01*
X47357319Y-64540000D01*
X41127000Y-64540000D01*
X41127000Y-53575810D01*
X47656036Y-53575810D01*
X47664728Y-53637337D01*
X47757725Y-53846882D01*
X47889816Y-54034258D01*
X48055924Y-54192264D01*
X48249666Y-54314828D01*
X48463596Y-54397239D01*
X48689493Y-54436331D01*
X48873000Y-54276598D01*
X48873000Y-53397000D01*
X49127000Y-53397000D01*
X49127000Y-54276598D01*
X49310507Y-54436331D01*
X49536404Y-54397239D01*
X49750334Y-54314828D01*
X49944076Y-54192264D01*
X50110184Y-54034258D01*
X50242275Y-53846882D01*
X50242750Y-53845810D01*
X68656036Y-53845810D01*
X68664728Y-53907337D01*
X68757725Y-54116882D01*
X68889816Y-54304258D01*
X69055924Y-54462264D01*
X69249666Y-54584828D01*
X69463596Y-54667239D01*
X69689493Y-54706331D01*
X69873000Y-54546598D01*
X69873000Y-53667000D01*
X70127000Y-53667000D01*
X70127000Y-54546598D01*
X70310507Y-54706331D01*
X70536404Y-54667239D01*
X70750334Y-54584828D01*
X70821195Y-54540000D01*
X104357319Y-54540000D01*
X104387970Y-54851204D01*
X104478745Y-55150449D01*
X104626155Y-55426235D01*
X104824537Y-55667963D01*
X104997609Y-55810000D01*
X104824537Y-55952037D01*
X104626155Y-56193765D01*
X104478745Y-56469551D01*
X104387970Y-56768796D01*
X104357319Y-57080000D01*
X104387970Y-57391204D01*
X104478745Y-57690449D01*
X104626155Y-57966235D01*
X104824537Y-58207963D01*
X105066265Y-58406345D01*
X105342051Y-58553755D01*
X105641296Y-58644530D01*
X105874514Y-58667500D01*
X106125486Y-58667500D01*
X106358704Y-58644530D01*
X106657949Y-58553755D01*
X106933735Y-58406345D01*
X107175463Y-58207963D01*
X107373845Y-57966235D01*
X107521255Y-57690449D01*
X107612030Y-57391204D01*
X107642681Y-57080000D01*
X107612030Y-56768796D01*
X107521255Y-56469551D01*
X107373845Y-56193765D01*
X107175463Y-55952037D01*
X107002391Y-55810000D01*
X107175463Y-55667963D01*
X107373845Y-55426235D01*
X107521255Y-55150449D01*
X107612030Y-54851204D01*
X107642681Y-54540000D01*
X107612030Y-54228796D01*
X107521255Y-53929551D01*
X107373845Y-53653765D01*
X107325618Y-53595000D01*
X112274868Y-53595000D01*
X105236860Y-60633009D01*
X105193552Y-60668551D01*
X105051717Y-60841377D01*
X105033990Y-60874542D01*
X104946324Y-61038554D01*
X104901111Y-61187600D01*
X104885974Y-61237501D01*
X104881423Y-61252502D01*
X104859509Y-61475000D01*
X104865000Y-61530751D01*
X104865000Y-61969499D01*
X104798815Y-62023815D01*
X104719463Y-62120506D01*
X104660498Y-62230820D01*
X104624188Y-62350518D01*
X104611928Y-62475000D01*
X104611928Y-63525000D01*
X104624188Y-63649482D01*
X104660498Y-63769180D01*
X104695093Y-63833902D01*
X104631785Y-64042600D01*
X104609388Y-64270000D01*
X104631785Y-64497400D01*
X104698115Y-64716060D01*
X104798929Y-64904669D01*
X104757725Y-64963118D01*
X104664728Y-65172663D01*
X104656036Y-65234190D01*
X104781837Y-65413000D01*
X105546891Y-65413000D01*
X105547600Y-65413215D01*
X105718021Y-65430000D01*
X106281979Y-65430000D01*
X106452400Y-65413215D01*
X106453109Y-65413000D01*
X107218163Y-65413000D01*
X107343964Y-65234190D01*
X107335272Y-65172663D01*
X107242275Y-64963118D01*
X107201071Y-64904669D01*
X107301885Y-64716060D01*
X107368215Y-64497400D01*
X107390612Y-64270000D01*
X107368215Y-64042600D01*
X107304907Y-63833902D01*
X107339502Y-63769180D01*
X107375812Y-63649482D01*
X107388072Y-63525000D01*
X107388072Y-62475000D01*
X107375812Y-62350518D01*
X107339502Y-62230820D01*
X107280537Y-62120506D01*
X107201185Y-62023815D01*
X107135000Y-61969499D01*
X107135000Y-61945131D01*
X111167151Y-57912980D01*
X116409437Y-57912980D01*
X116480429Y-58131094D01*
X116624031Y-58406923D01*
X116818685Y-58649437D01*
X117056911Y-58849316D01*
X117329554Y-58998879D01*
X117626137Y-59092378D01*
X117873000Y-58965570D01*
X117873000Y-57667000D01*
X118127000Y-57667000D01*
X118127000Y-58965570D01*
X118373863Y-59092378D01*
X118670446Y-58998879D01*
X118943089Y-58849316D01*
X119043471Y-58765092D01*
X135534940Y-58765092D01*
X135534940Y-59234908D01*
X135626597Y-59695696D01*
X135806387Y-60129749D01*
X136067403Y-60520387D01*
X136399613Y-60852597D01*
X136790251Y-61113613D01*
X137224304Y-61293403D01*
X137685092Y-61385060D01*
X138154908Y-61385060D01*
X138615696Y-61293403D01*
X139049749Y-61113613D01*
X139440387Y-60852597D01*
X139772597Y-60520387D01*
X140033613Y-60129749D01*
X140213403Y-59695696D01*
X140305060Y-59234908D01*
X140305060Y-58765092D01*
X140213403Y-58304304D01*
X140033613Y-57870251D01*
X139772597Y-57479613D01*
X139542924Y-57249940D01*
X140611868Y-57249940D01*
X140611868Y-60750060D01*
X140624128Y-60874542D01*
X140660438Y-60994240D01*
X140719403Y-61104554D01*
X140798755Y-61201245D01*
X140895446Y-61280597D01*
X141005760Y-61339562D01*
X141125458Y-61375872D01*
X141249940Y-61388132D01*
X144750060Y-61388132D01*
X144874542Y-61375872D01*
X144994240Y-61339562D01*
X145104554Y-61280597D01*
X145201245Y-61201245D01*
X145280597Y-61104554D01*
X145339562Y-60994240D01*
X145375872Y-60874542D01*
X145388132Y-60750060D01*
X145388132Y-57249940D01*
X145375872Y-57125458D01*
X145339562Y-57005760D01*
X145280597Y-56895446D01*
X145201245Y-56798755D01*
X145104554Y-56719403D01*
X144994240Y-56660438D01*
X144874542Y-56624128D01*
X144750060Y-56611868D01*
X141249940Y-56611868D01*
X141125458Y-56624128D01*
X141005760Y-56660438D01*
X140895446Y-56719403D01*
X140798755Y-56798755D01*
X140719403Y-56895446D01*
X140660438Y-57005760D01*
X140624128Y-57125458D01*
X140611868Y-57249940D01*
X139542924Y-57249940D01*
X139440387Y-57147403D01*
X139049749Y-56886387D01*
X138615696Y-56706597D01*
X138154908Y-56614940D01*
X137685092Y-56614940D01*
X137224304Y-56706597D01*
X136790251Y-56886387D01*
X136399613Y-57147403D01*
X136067403Y-57479613D01*
X135806387Y-57870251D01*
X135626597Y-58304304D01*
X135534940Y-58765092D01*
X119043471Y-58765092D01*
X119181315Y-58649437D01*
X119375969Y-58406923D01*
X119519571Y-58131094D01*
X119590563Y-57912980D01*
X119470594Y-57667000D01*
X118127000Y-57667000D01*
X117873000Y-57667000D01*
X116529406Y-57667000D01*
X116409437Y-57912980D01*
X111167151Y-57912980D01*
X115485132Y-53595000D01*
X116391788Y-53595000D01*
X116410498Y-53656680D01*
X116469463Y-53766994D01*
X116548815Y-53863685D01*
X116645506Y-53943037D01*
X116729446Y-53987905D01*
X116626155Y-54113765D01*
X116478745Y-54389551D01*
X116387970Y-54688796D01*
X116357319Y-55000000D01*
X116387970Y-55311204D01*
X116478745Y-55610449D01*
X116626155Y-55886235D01*
X116824537Y-56127963D01*
X117003899Y-56275163D01*
X116818685Y-56430563D01*
X116624031Y-56673077D01*
X116480429Y-56948906D01*
X116409437Y-57167020D01*
X116529406Y-57413000D01*
X117873000Y-57413000D01*
X117873000Y-57393000D01*
X118127000Y-57393000D01*
X118127000Y-57413000D01*
X119470594Y-57413000D01*
X119590563Y-57167020D01*
X119519571Y-56948906D01*
X119375969Y-56673077D01*
X119181315Y-56430563D01*
X118996101Y-56275163D01*
X119175463Y-56127963D01*
X119373845Y-55886235D01*
X119521255Y-55610449D01*
X119612030Y-55311204D01*
X119642681Y-55000000D01*
X119612030Y-54688796D01*
X119521255Y-54389551D01*
X119373845Y-54113765D01*
X119270554Y-53987905D01*
X119354494Y-53943037D01*
X119451185Y-53863685D01*
X119530537Y-53766994D01*
X119589502Y-53656680D01*
X119625812Y-53536982D01*
X119638072Y-53412500D01*
X119638072Y-51507500D01*
X119625812Y-51383018D01*
X119589502Y-51263320D01*
X119530537Y-51153006D01*
X119451185Y-51056315D01*
X119354494Y-50976963D01*
X119244180Y-50917998D01*
X119124482Y-50881688D01*
X119000000Y-50869428D01*
X117000000Y-50869428D01*
X116875518Y-50881688D01*
X116755820Y-50917998D01*
X116645506Y-50976963D01*
X116548815Y-51056315D01*
X116469463Y-51153006D01*
X116410498Y-51263320D01*
X116391788Y-51325000D01*
X115070741Y-51325000D01*
X115014999Y-51319510D01*
X114959257Y-51325000D01*
X107638072Y-51325000D01*
X107638072Y-51047500D01*
X107625812Y-50923018D01*
X107589502Y-50803320D01*
X107530537Y-50693006D01*
X107451185Y-50596315D01*
X107354494Y-50516963D01*
X107244180Y-50457998D01*
X107124482Y-50421688D01*
X107000000Y-50409428D01*
X105000000Y-50409428D01*
X104875518Y-50421688D01*
X104755820Y-50457998D01*
X104645506Y-50516963D01*
X104548815Y-50596315D01*
X104469463Y-50693006D01*
X104410498Y-50803320D01*
X104374188Y-50923018D01*
X104361928Y-51047500D01*
X104361928Y-52952500D01*
X104374188Y-53076982D01*
X104410498Y-53196680D01*
X104469463Y-53306994D01*
X104548815Y-53403685D01*
X104645506Y-53483037D01*
X104729446Y-53527905D01*
X104626155Y-53653765D01*
X104478745Y-53929551D01*
X104387970Y-54228796D01*
X104357319Y-54540000D01*
X70821195Y-54540000D01*
X70944076Y-54462264D01*
X71110184Y-54304258D01*
X71242275Y-54116882D01*
X71335272Y-53907337D01*
X71343964Y-53845810D01*
X71218163Y-53667000D01*
X70127000Y-53667000D01*
X69873000Y-53667000D01*
X68781837Y-53667000D01*
X68656036Y-53845810D01*
X50242750Y-53845810D01*
X50335272Y-53637337D01*
X50343964Y-53575810D01*
X50218163Y-53397000D01*
X49127000Y-53397000D01*
X48873000Y-53397000D01*
X47781837Y-53397000D01*
X47656036Y-53575810D01*
X41127000Y-53575810D01*
X41127000Y-52000000D01*
X47609388Y-52000000D01*
X47631785Y-52227400D01*
X47698115Y-52446060D01*
X47798929Y-52634669D01*
X47757725Y-52693118D01*
X47664728Y-52902663D01*
X47656036Y-52964190D01*
X47781837Y-53143000D01*
X48546891Y-53143000D01*
X48547600Y-53143215D01*
X48718021Y-53160000D01*
X49281979Y-53160000D01*
X49452400Y-53143215D01*
X49453109Y-53143000D01*
X50218163Y-53143000D01*
X50343964Y-52964190D01*
X50335272Y-52902663D01*
X50242275Y-52693118D01*
X50201071Y-52634669D01*
X50301885Y-52446060D01*
X50355292Y-52270000D01*
X68609388Y-52270000D01*
X68631785Y-52497400D01*
X68698115Y-52716060D01*
X68798929Y-52904669D01*
X68757725Y-52963118D01*
X68664728Y-53172663D01*
X68656036Y-53234190D01*
X68781837Y-53413000D01*
X69546891Y-53413000D01*
X69547600Y-53413215D01*
X69718021Y-53430000D01*
X70281979Y-53430000D01*
X70452400Y-53413215D01*
X70453109Y-53413000D01*
X71218163Y-53413000D01*
X71343964Y-53234190D01*
X71335272Y-53172663D01*
X71242275Y-52963118D01*
X71201071Y-52904669D01*
X71301885Y-52716060D01*
X71368215Y-52497400D01*
X71390612Y-52270000D01*
X71368215Y-52042600D01*
X71304907Y-51833902D01*
X71339502Y-51769180D01*
X71375812Y-51649482D01*
X71388072Y-51525000D01*
X71388072Y-50475000D01*
X71375812Y-50350518D01*
X71339502Y-50230820D01*
X71280537Y-50120506D01*
X71201185Y-50023815D01*
X71104494Y-49944463D01*
X70994180Y-49885498D01*
X70874482Y-49849188D01*
X70750000Y-49836928D01*
X69250000Y-49836928D01*
X69125518Y-49849188D01*
X69005820Y-49885498D01*
X68895506Y-49944463D01*
X68798815Y-50023815D01*
X68719463Y-50120506D01*
X68660498Y-50230820D01*
X68624188Y-50350518D01*
X68611928Y-50475000D01*
X68611928Y-51525000D01*
X68624188Y-51649482D01*
X68660498Y-51769180D01*
X68695093Y-51833902D01*
X68631785Y-52042600D01*
X68609388Y-52270000D01*
X50355292Y-52270000D01*
X50368215Y-52227400D01*
X50390612Y-52000000D01*
X50368215Y-51772600D01*
X50304907Y-51563902D01*
X50339502Y-51499180D01*
X50375812Y-51379482D01*
X50388072Y-51255000D01*
X50388072Y-50205000D01*
X50375812Y-50080518D01*
X50339502Y-49960820D01*
X50280537Y-49850506D01*
X50201185Y-49753815D01*
X50104494Y-49674463D01*
X49994180Y-49615498D01*
X49874482Y-49579188D01*
X49750000Y-49566928D01*
X48250000Y-49566928D01*
X48125518Y-49579188D01*
X48005820Y-49615498D01*
X47895506Y-49674463D01*
X47798815Y-49753815D01*
X47719463Y-49850506D01*
X47660498Y-49960820D01*
X47624188Y-50080518D01*
X47611928Y-50205000D01*
X47611928Y-51255000D01*
X47624188Y-51379482D01*
X47660498Y-51499180D01*
X47695093Y-51563902D01*
X47631785Y-51772600D01*
X47609388Y-52000000D01*
X41127000Y-52000000D01*
X41127000Y-42540000D01*
X53357319Y-42540000D01*
X53387970Y-42851204D01*
X53478745Y-43150449D01*
X53626155Y-43426235D01*
X53824537Y-43667963D01*
X53997609Y-43810000D01*
X53824537Y-43952037D01*
X53626155Y-44193765D01*
X53478745Y-44469551D01*
X53387970Y-44768796D01*
X53357319Y-45080000D01*
X53387970Y-45391204D01*
X53478745Y-45690449D01*
X53626155Y-45966235D01*
X53824537Y-46207963D01*
X54066265Y-46406345D01*
X54342051Y-46553755D01*
X54641296Y-46644530D01*
X54874514Y-46667500D01*
X55125486Y-46667500D01*
X55358704Y-46644530D01*
X55657949Y-46553755D01*
X55933735Y-46406345D01*
X56175463Y-46207963D01*
X56373845Y-45966235D01*
X56521255Y-45690449D01*
X56612030Y-45391204D01*
X56642681Y-45080000D01*
X56612030Y-44768796D01*
X56521255Y-44469551D01*
X56373845Y-44193765D01*
X56175463Y-43952037D01*
X56002391Y-43810000D01*
X56175463Y-43667963D01*
X56373845Y-43426235D01*
X56521255Y-43150449D01*
X56612030Y-42851204D01*
X56642681Y-42540000D01*
X62357319Y-42540000D01*
X62387970Y-42851204D01*
X62478745Y-43150449D01*
X62626155Y-43426235D01*
X62824537Y-43667963D01*
X62997609Y-43810000D01*
X62824537Y-43952037D01*
X62626155Y-44193765D01*
X62478745Y-44469551D01*
X62387970Y-44768796D01*
X62357319Y-45080000D01*
X62387970Y-45391204D01*
X62478745Y-45690449D01*
X62626155Y-45966235D01*
X62824537Y-46207963D01*
X63066265Y-46406345D01*
X63342051Y-46553755D01*
X63641296Y-46644530D01*
X63874514Y-46667500D01*
X64125486Y-46667500D01*
X64358704Y-46644530D01*
X64657949Y-46553755D01*
X64933735Y-46406345D01*
X65175463Y-46207963D01*
X65373845Y-45966235D01*
X65521255Y-45690449D01*
X65593290Y-45452980D01*
X91409437Y-45452980D01*
X91480429Y-45671094D01*
X91624031Y-45946923D01*
X91818685Y-46189437D01*
X92056911Y-46389316D01*
X92329554Y-46538879D01*
X92626137Y-46632378D01*
X92873000Y-46505570D01*
X92873000Y-45207000D01*
X93127000Y-45207000D01*
X93127000Y-46505570D01*
X93373863Y-46632378D01*
X93670446Y-46538879D01*
X93943089Y-46389316D01*
X94181315Y-46189437D01*
X94375969Y-45946923D01*
X94519571Y-45671094D01*
X94590563Y-45452980D01*
X94470594Y-45207000D01*
X93127000Y-45207000D01*
X92873000Y-45207000D01*
X91529406Y-45207000D01*
X91409437Y-45452980D01*
X65593290Y-45452980D01*
X65612030Y-45391204D01*
X65642681Y-45080000D01*
X65612030Y-44768796D01*
X65521255Y-44469551D01*
X65373845Y-44193765D01*
X65175463Y-43952037D01*
X65002391Y-43810000D01*
X65175463Y-43667963D01*
X65373845Y-43426235D01*
X65521255Y-43150449D01*
X65612030Y-42851204D01*
X65642681Y-42540000D01*
X91357319Y-42540000D01*
X91387970Y-42851204D01*
X91478745Y-43150449D01*
X91626155Y-43426235D01*
X91824537Y-43667963D01*
X92003899Y-43815163D01*
X91818685Y-43970563D01*
X91624031Y-44213077D01*
X91480429Y-44488906D01*
X91409437Y-44707020D01*
X91529406Y-44953000D01*
X92873000Y-44953000D01*
X92873000Y-44933000D01*
X93127000Y-44933000D01*
X93127000Y-44953000D01*
X94470594Y-44953000D01*
X94590563Y-44707020D01*
X94519571Y-44488906D01*
X94375969Y-44213077D01*
X94181315Y-43970563D01*
X93996101Y-43815163D01*
X94175463Y-43667963D01*
X94373845Y-43426235D01*
X94521255Y-43150449D01*
X94612030Y-42851204D01*
X94642681Y-42540000D01*
X94612030Y-42228796D01*
X94521255Y-41929551D01*
X94373845Y-41653765D01*
X94270554Y-41527905D01*
X94354494Y-41483037D01*
X94451185Y-41403685D01*
X94530537Y-41306994D01*
X94589502Y-41196680D01*
X94625812Y-41076982D01*
X94638072Y-40952500D01*
X94638072Y-39047500D01*
X94625812Y-38923018D01*
X94589502Y-38803320D01*
X94530537Y-38693006D01*
X94451185Y-38596315D01*
X94354494Y-38516963D01*
X94244180Y-38457998D01*
X94124482Y-38421688D01*
X94000000Y-38409428D01*
X92000000Y-38409428D01*
X91875518Y-38421688D01*
X91755820Y-38457998D01*
X91645506Y-38516963D01*
X91548815Y-38596315D01*
X91469463Y-38693006D01*
X91410498Y-38803320D01*
X91374188Y-38923018D01*
X91361928Y-39047500D01*
X91361928Y-40952500D01*
X91374188Y-41076982D01*
X91410498Y-41196680D01*
X91469463Y-41306994D01*
X91548815Y-41403685D01*
X91645506Y-41483037D01*
X91729446Y-41527905D01*
X91626155Y-41653765D01*
X91478745Y-41929551D01*
X91387970Y-42228796D01*
X91357319Y-42540000D01*
X65642681Y-42540000D01*
X65612030Y-42228796D01*
X65521255Y-41929551D01*
X65373845Y-41653765D01*
X65270554Y-41527905D01*
X65354494Y-41483037D01*
X65451185Y-41403685D01*
X65530537Y-41306994D01*
X65589502Y-41196680D01*
X65625812Y-41076982D01*
X65638072Y-40952500D01*
X65638072Y-39047500D01*
X65625812Y-38923018D01*
X65589502Y-38803320D01*
X65530537Y-38693006D01*
X65451185Y-38596315D01*
X65354494Y-38516963D01*
X65244180Y-38457998D01*
X65124482Y-38421688D01*
X65000000Y-38409428D01*
X63000000Y-38409428D01*
X62875518Y-38421688D01*
X62755820Y-38457998D01*
X62645506Y-38516963D01*
X62548815Y-38596315D01*
X62469463Y-38693006D01*
X62410498Y-38803320D01*
X62374188Y-38923018D01*
X62361928Y-39047500D01*
X62361928Y-40952500D01*
X62374188Y-41076982D01*
X62410498Y-41196680D01*
X62469463Y-41306994D01*
X62548815Y-41403685D01*
X62645506Y-41483037D01*
X62729446Y-41527905D01*
X62626155Y-41653765D01*
X62478745Y-41929551D01*
X62387970Y-42228796D01*
X62357319Y-42540000D01*
X56642681Y-42540000D01*
X56612030Y-42228796D01*
X56521255Y-41929551D01*
X56373845Y-41653765D01*
X56270554Y-41527905D01*
X56354494Y-41483037D01*
X56451185Y-41403685D01*
X56530537Y-41306994D01*
X56589502Y-41196680D01*
X56625812Y-41076982D01*
X56638072Y-40952500D01*
X56638072Y-39047500D01*
X56625812Y-38923018D01*
X56589502Y-38803320D01*
X56530537Y-38693006D01*
X56451185Y-38596315D01*
X56354494Y-38516963D01*
X56244180Y-38457998D01*
X56124482Y-38421688D01*
X56000000Y-38409428D01*
X54000000Y-38409428D01*
X53875518Y-38421688D01*
X53755820Y-38457998D01*
X53645506Y-38516963D01*
X53548815Y-38596315D01*
X53469463Y-38693006D01*
X53410498Y-38803320D01*
X53374188Y-38923018D01*
X53361928Y-39047500D01*
X53361928Y-40952500D01*
X53374188Y-41076982D01*
X53410498Y-41196680D01*
X53469463Y-41306994D01*
X53548815Y-41403685D01*
X53645506Y-41483037D01*
X53729446Y-41527905D01*
X53626155Y-41653765D01*
X53478745Y-41929551D01*
X53387970Y-42228796D01*
X53357319Y-42540000D01*
X41127000Y-42540000D01*
X41127000Y-40052606D01*
X50629666Y-30549940D01*
X54611868Y-30549940D01*
X54611868Y-34050060D01*
X54624128Y-34174542D01*
X54660438Y-34294240D01*
X54719403Y-34404554D01*
X54798755Y-34501245D01*
X54895446Y-34580597D01*
X55005760Y-34639562D01*
X55125458Y-34675872D01*
X55249940Y-34688132D01*
X58750060Y-34688132D01*
X58874542Y-34675872D01*
X58994240Y-34639562D01*
X59104554Y-34580597D01*
X59201245Y-34501245D01*
X59280597Y-34404554D01*
X59339562Y-34294240D01*
X59375872Y-34174542D01*
X59388132Y-34050060D01*
X59388132Y-33969651D01*
X60589954Y-33969651D01*
X60776039Y-34310815D01*
X61193384Y-34526568D01*
X61644802Y-34656755D01*
X62112944Y-34696374D01*
X62579821Y-34643901D01*
X63027489Y-34501354D01*
X63383961Y-34310815D01*
X63570046Y-33969651D01*
X62080000Y-32479605D01*
X60589954Y-33969651D01*
X59388132Y-33969651D01*
X59388132Y-32332944D01*
X59683626Y-32332944D01*
X59736099Y-32799821D01*
X59878646Y-33247489D01*
X60069185Y-33603961D01*
X60410349Y-33790046D01*
X61900395Y-32300000D01*
X62259605Y-32300000D01*
X63749651Y-33790046D01*
X64090815Y-33603961D01*
X64306568Y-33186616D01*
X64436755Y-32735198D01*
X64476374Y-32267056D01*
X64423901Y-31800179D01*
X64281354Y-31352511D01*
X64090815Y-30996039D01*
X63749651Y-30809954D01*
X62259605Y-32300000D01*
X61900395Y-32300000D01*
X60410349Y-30809954D01*
X60069185Y-30996039D01*
X59853432Y-31413384D01*
X59723245Y-31864802D01*
X59683626Y-32332944D01*
X59388132Y-32332944D01*
X59388132Y-30630349D01*
X60589954Y-30630349D01*
X62080000Y-32120395D01*
X63570046Y-30630349D01*
X63383961Y-30289185D01*
X63308047Y-30249940D01*
X97611868Y-30249940D01*
X97611868Y-33750060D01*
X97624128Y-33874542D01*
X97660438Y-33994240D01*
X97719403Y-34104554D01*
X97798755Y-34201245D01*
X97895446Y-34280597D01*
X98005760Y-34339562D01*
X98125458Y-34375872D01*
X98249940Y-34388132D01*
X98865000Y-34388132D01*
X98865001Y-41944239D01*
X98859509Y-42000000D01*
X98881423Y-42222498D01*
X98946324Y-42436446D01*
X98946325Y-42436447D01*
X99051717Y-42633623D01*
X99193552Y-42806449D01*
X99236860Y-42841991D01*
X100736856Y-44341988D01*
X100736862Y-44341993D01*
X101236857Y-44841988D01*
X101366378Y-44948284D01*
X101563553Y-45053676D01*
X101777501Y-45118577D01*
X102000000Y-45140491D01*
X102222499Y-45118577D01*
X102436446Y-45053676D01*
X102633622Y-44948284D01*
X102806449Y-44806449D01*
X102948284Y-44633622D01*
X103053676Y-44436446D01*
X103118577Y-44222499D01*
X103140491Y-44000000D01*
X103118577Y-43777501D01*
X103053676Y-43563553D01*
X102948284Y-43366378D01*
X102841988Y-43236857D01*
X102341993Y-42736862D01*
X102341988Y-42736856D01*
X101135000Y-41529869D01*
X101135000Y-34388132D01*
X101750060Y-34388132D01*
X101874542Y-34375872D01*
X101994240Y-34339562D01*
X102104554Y-34280597D01*
X102201245Y-34201245D01*
X102280597Y-34104554D01*
X102339562Y-33994240D01*
X102375872Y-33874542D01*
X102388132Y-33750060D01*
X102388132Y-31765092D01*
X102694940Y-31765092D01*
X102694940Y-32234908D01*
X102786597Y-32695696D01*
X102966387Y-33129749D01*
X103227403Y-33520387D01*
X103559613Y-33852597D01*
X103950251Y-34113613D01*
X104384304Y-34293403D01*
X104845092Y-34385060D01*
X105314908Y-34385060D01*
X105775696Y-34293403D01*
X106209749Y-34113613D01*
X106600387Y-33852597D01*
X106932597Y-33520387D01*
X107193613Y-33129749D01*
X107373403Y-32695696D01*
X107465060Y-32234908D01*
X107465060Y-31765092D01*
X107373403Y-31304304D01*
X107226622Y-30949940D01*
X116611868Y-30949940D01*
X116611868Y-34450060D01*
X116624128Y-34574542D01*
X116660438Y-34694240D01*
X116719403Y-34804554D01*
X116798755Y-34901245D01*
X116895446Y-34980597D01*
X117005760Y-35039562D01*
X117125458Y-35075872D01*
X117249940Y-35088132D01*
X120750060Y-35088132D01*
X120874542Y-35075872D01*
X120994240Y-35039562D01*
X121104554Y-34980597D01*
X121201245Y-34901245D01*
X121280597Y-34804554D01*
X121339562Y-34694240D01*
X121375872Y-34574542D01*
X121388132Y-34450060D01*
X121388132Y-34369651D01*
X122589954Y-34369651D01*
X122776039Y-34710815D01*
X123193384Y-34926568D01*
X123644802Y-35056755D01*
X124112944Y-35096374D01*
X124579821Y-35043901D01*
X125027489Y-34901354D01*
X125383961Y-34710815D01*
X125570046Y-34369651D01*
X124080000Y-32879605D01*
X122589954Y-34369651D01*
X121388132Y-34369651D01*
X121388132Y-32732944D01*
X121683626Y-32732944D01*
X121736099Y-33199821D01*
X121878646Y-33647489D01*
X122069185Y-34003961D01*
X122410349Y-34190046D01*
X123900395Y-32700000D01*
X124259605Y-32700000D01*
X125749651Y-34190046D01*
X126090815Y-34003961D01*
X126306568Y-33586616D01*
X126436755Y-33135198D01*
X126476374Y-32667056D01*
X126423901Y-32200179D01*
X126281354Y-31752511D01*
X126090815Y-31396039D01*
X125822961Y-31249940D01*
X128611868Y-31249940D01*
X128611868Y-34750060D01*
X128624128Y-34874542D01*
X128660438Y-34994240D01*
X128719403Y-35104554D01*
X128798755Y-35201245D01*
X128895446Y-35280597D01*
X129005760Y-35339562D01*
X129125458Y-35375872D01*
X129249940Y-35388132D01*
X132750060Y-35388132D01*
X132874542Y-35375872D01*
X132994240Y-35339562D01*
X133104554Y-35280597D01*
X133201245Y-35201245D01*
X133280597Y-35104554D01*
X133339562Y-34994240D01*
X133375872Y-34874542D01*
X133388132Y-34750060D01*
X133388132Y-34669651D01*
X134589954Y-34669651D01*
X134776039Y-35010815D01*
X135193384Y-35226568D01*
X135644802Y-35356755D01*
X136112944Y-35396374D01*
X136579821Y-35343901D01*
X137027489Y-35201354D01*
X137383961Y-35010815D01*
X137570046Y-34669651D01*
X136080000Y-33179605D01*
X134589954Y-34669651D01*
X133388132Y-34669651D01*
X133388132Y-33032944D01*
X133683626Y-33032944D01*
X133736099Y-33499821D01*
X133878646Y-33947489D01*
X134069185Y-34303961D01*
X134410349Y-34490046D01*
X135900395Y-33000000D01*
X136259605Y-33000000D01*
X137749651Y-34490046D01*
X138090815Y-34303961D01*
X138306568Y-33886616D01*
X138436755Y-33435198D01*
X138476374Y-32967056D01*
X138423901Y-32500179D01*
X138281354Y-32052511D01*
X138090815Y-31696039D01*
X137749651Y-31509954D01*
X136259605Y-33000000D01*
X135900395Y-33000000D01*
X134410349Y-31509954D01*
X134069185Y-31696039D01*
X133853432Y-32113384D01*
X133723245Y-32564802D01*
X133683626Y-33032944D01*
X133388132Y-33032944D01*
X133388132Y-31330349D01*
X134589954Y-31330349D01*
X136080000Y-32820395D01*
X137570046Y-31330349D01*
X137383961Y-30989185D01*
X136966616Y-30773432D01*
X136515198Y-30643245D01*
X136047056Y-30603626D01*
X135580179Y-30656099D01*
X135132511Y-30798646D01*
X134776039Y-30989185D01*
X134589954Y-31330349D01*
X133388132Y-31330349D01*
X133388132Y-31249940D01*
X133375872Y-31125458D01*
X133339562Y-31005760D01*
X133280597Y-30895446D01*
X133201245Y-30798755D01*
X133104554Y-30719403D01*
X132994240Y-30660438D01*
X132874542Y-30624128D01*
X132750060Y-30611868D01*
X129249940Y-30611868D01*
X129125458Y-30624128D01*
X129005760Y-30660438D01*
X128895446Y-30719403D01*
X128798755Y-30798755D01*
X128719403Y-30895446D01*
X128660438Y-31005760D01*
X128624128Y-31125458D01*
X128611868Y-31249940D01*
X125822961Y-31249940D01*
X125749651Y-31209954D01*
X124259605Y-32700000D01*
X123900395Y-32700000D01*
X122410349Y-31209954D01*
X122069185Y-31396039D01*
X121853432Y-31813384D01*
X121723245Y-32264802D01*
X121683626Y-32732944D01*
X121388132Y-32732944D01*
X121388132Y-31030349D01*
X122589954Y-31030349D01*
X124080000Y-32520395D01*
X125570046Y-31030349D01*
X125383961Y-30689185D01*
X124966616Y-30473432D01*
X124515198Y-30343245D01*
X124047056Y-30303626D01*
X123580179Y-30356099D01*
X123132511Y-30498646D01*
X122776039Y-30689185D01*
X122589954Y-31030349D01*
X121388132Y-31030349D01*
X121388132Y-30949940D01*
X121375872Y-30825458D01*
X121339562Y-30705760D01*
X121280597Y-30595446D01*
X121201245Y-30498755D01*
X121104554Y-30419403D01*
X120994240Y-30360438D01*
X120874542Y-30324128D01*
X120750060Y-30311868D01*
X117249940Y-30311868D01*
X117125458Y-30324128D01*
X117005760Y-30360438D01*
X116895446Y-30419403D01*
X116798755Y-30498755D01*
X116719403Y-30595446D01*
X116660438Y-30705760D01*
X116624128Y-30825458D01*
X116611868Y-30949940D01*
X107226622Y-30949940D01*
X107193613Y-30870251D01*
X106932597Y-30479613D01*
X106600387Y-30147403D01*
X106209749Y-29886387D01*
X105775696Y-29706597D01*
X105314908Y-29614940D01*
X104845092Y-29614940D01*
X104384304Y-29706597D01*
X103950251Y-29886387D01*
X103559613Y-30147403D01*
X103227403Y-30479613D01*
X102966387Y-30870251D01*
X102786597Y-31304304D01*
X102694940Y-31765092D01*
X102388132Y-31765092D01*
X102388132Y-30249940D01*
X102375872Y-30125458D01*
X102339562Y-30005760D01*
X102280597Y-29895446D01*
X102201245Y-29798755D01*
X102104554Y-29719403D01*
X101994240Y-29660438D01*
X101874542Y-29624128D01*
X101750060Y-29611868D01*
X98249940Y-29611868D01*
X98125458Y-29624128D01*
X98005760Y-29660438D01*
X97895446Y-29719403D01*
X97798755Y-29798755D01*
X97719403Y-29895446D01*
X97660438Y-30005760D01*
X97624128Y-30125458D01*
X97611868Y-30249940D01*
X63308047Y-30249940D01*
X62966616Y-30073432D01*
X62515198Y-29943245D01*
X62047056Y-29903626D01*
X61580179Y-29956099D01*
X61132511Y-30098646D01*
X60776039Y-30289185D01*
X60589954Y-30630349D01*
X59388132Y-30630349D01*
X59388132Y-30549940D01*
X59375872Y-30425458D01*
X59339562Y-30305760D01*
X59280597Y-30195446D01*
X59201245Y-30098755D01*
X59104554Y-30019403D01*
X58994240Y-29960438D01*
X58874542Y-29924128D01*
X58750060Y-29911868D01*
X55249940Y-29911868D01*
X55125458Y-29924128D01*
X55005760Y-29960438D01*
X54895446Y-30019403D01*
X54798755Y-30098755D01*
X54719403Y-30195446D01*
X54660438Y-30305760D01*
X54624128Y-30425458D01*
X54611868Y-30549940D01*
X50629666Y-30549940D01*
X52052606Y-29127000D01*
X139947394Y-29127000D01*
X151873000Y-41052606D01*
M02*
